<?xml version="1.0" encoding="utf-8"?>
<!-- Generator: Adobe Illustrator 17.0.0, SVG Export Plug-In . SVG Version: 6.00 Build 0)  -->
<!DOCTYPE svg PUBLIC "-//W3C//DTD SVG 1.1//EN" "http://www.w3.org/Graphics/SVG/1.1/DTD/svg11.dtd">
<svg version="1.1" id="Layer_1" xmlns="http://www.w3.org/2000/svg" xmlns:xlink="http://www.w3.org/1999/xlink" x="0px" y="0px"
	 width="30px" height="30px" viewBox="0 0 30 30" enable-background="new 0 0 30 30" xml:space="preserve">
<g>
	<path fill="#FFFFFF" d="M22.726,17.077c0.483,0.799,0.769,1.772,0.826,2.756c0.931,0.211,1.629,1.044,1.629,2.038
		c0,1.153-0.938,2.091-2.091,2.091s-2.091-0.938-2.091-2.091c0-0.98,0.679-1.803,1.59-2.028c-0.092-1.335-0.693-2.676-1.663-3.295
		c-0.236-0.042-0.475-0.075-0.717-0.097c-0.035,1.565-2.353,2.826-5.209,2.826s-5.174-1.262-5.208-2.826
		c-0.309,0.028-0.612,0.074-0.91,0.134c-0.754,0.539-1.363,1.59-1.396,2.866c0.187,0.108,0.338,0.276,0.43,0.479
		c0.687,0.324,1.294,1.007,1.759,1.979c0.078,0.164,0.088,0.348,0.031,0.517c0.279,0.717,0.438,1.501,0.438,2.159
		c0,0.922,0,1.795-1.005,2.019c-0.109,0.091-0.245,0.14-0.388,0.14H8.077c-0.337,0-0.611-0.274-0.611-0.611l0.001-0.024
		c0.013-0.325,0.285-0.587,0.61-0.587h0.672c0.069,0,0.136,0.012,0.201,0.034c0.041-0.012,0.053-0.021,0.054-0.021
		c0.075-0.133,0.075-0.685,0.075-0.95c0-0.535-0.134-1.18-0.368-1.78c-0.122-0.069-0.22-0.174-0.281-0.3
		C8.022,21.651,7.468,21.1,7.018,21.1c-0.46,0-1.042,0.596-1.448,1.481c-0.066,0.144-0.182,0.262-0.325,0.332
		c-0.212,0.574-0.328,1.165-0.328,1.671c0,0.223,0,0.814,0.085,0.952c0.001,0,0.02,0.012,0.073,0.025
		c0.069-0.027,0.144-0.041,0.219-0.041h0.673c0.314,0,0.576,0.239,0.607,0.549l0.003,0.038c0,0.361-0.274,0.635-0.611,0.635H5.294
		c-0.134,0-0.263-0.044-0.369-0.126C4.541,26.545,4.27,26.376,4.098,26.1c-0.208-0.334-0.246-0.772-0.246-1.515
		c0-0.652,0.151-1.403,0.424-2.12c-0.04-0.153-0.027-0.314,0.04-0.458c0.285-0.623,0.647-1.156,1.047-1.542
		c0.22-0.212,0.457-0.383,0.704-0.507c0.093-0.217,0.254-0.395,0.452-0.508c0.019-0.846,0.252-1.648,0.634-2.322
		C4.121,18.45,2,21.474,2,24.994c0,4.273,3.123,4.484,7.211,4.484c0.446,0,0.903-0.003,1.37-0.003h8.838
		c0.465,0,0.923,0.003,1.369,0.003c4.088,0,7.211-0.21,7.211-4.483C28,21.428,25.822,18.372,22.726,17.077z"/>
	<path fill="#FFFFFF" d="M15,17.571c3.952,0,7.155-5.943,7.155-9.893c0-3.952-3.203-7.155-7.155-7.155
		c-3.952,0-7.155,3.204-7.155,7.155C7.845,11.629,11.049,17.571,15,17.571z M10.726,4.462c1.068,3.253,8.451,1.789,8.451,1.789
		c2.126-0.162,1.973,2.761,1.97,2.793c-0.562,3.335-3.1,7.406-6.146,7.406c-3.161,0-5.776-4.388-6.202-7.783
		C9.133,5.784,10.726,4.462,10.726,4.462z"/>
	<circle fill="#FFFFFF" cx="23.09" cy="21.871" r="0.965"/>
</g>
</svg>
