<?xml version="1.0" encoding="utf-8"?>
<!-- Generator: Adobe Illustrator 17.0.0, SVG Export Plug-In . SVG Version: 6.00 Build 0)  -->
<!DOCTYPE svg PUBLIC "-//W3C//DTD SVG 1.1//EN" "http://www.w3.org/Graphics/SVG/1.1/DTD/svg11.dtd">
<svg version="1.1" id="Layer_1" xmlns="http://www.w3.org/2000/svg" xmlns:xlink="http://www.w3.org/1999/xlink" x="0px" y="0px"
	 width="30px" height="30px" viewBox="0 0 30 30" enable-background="new 0 0 30 30" xml:space="preserve">
<g>
	<polygon fill="#FFFFFF" points="13.992,6.656 16.008,6.656 16.008,4.864 17.8,4.864 17.8,2.792 16.008,2.792 16.008,1 13.992,1 
		13.992,2.792 12.2,2.792 12.2,4.864 13.992,4.864 	"/>
	<rect x="11.248" y="23.96" fill="#FFFFFF" width="3.248" height="5.04"/>
	<rect x="15.56" y="23.96" fill="#FFFFFF" width="3.248" height="5.04"/>
	<path fill="#FFFFFF" d="M22.504,3.8H18.92v2.072h-1.792V7.72h-4.2V5.928H11.08V3.8H7.44c-0.616,0-1.12,0.504-1.12,1.12V29h3.808
		v-5.544c0-0.28,0.224-0.56,0.56-0.56h8.624c0.28,0,0.56,0.224,0.56,0.56V29h3.808V4.976C23.68,4.36,23.176,3.8,22.504,3.8z
		 M11.416,21.16H8.392v-2.184h3.024V21.16z M11.416,16.4H8.392v-2.184h3.024V16.4z M11.416,11.64H8.392V9.456h3.024V11.64z
		 M16.568,21.16h-3.024v-2.184h3.024V21.16z M16.568,16.4h-3.024v-2.184h3.024V16.4z M16.568,11.64h-3.024V9.456h3.024V11.64z
		 M21.72,21.16h-3.024v-2.184h3.024V21.16z M21.72,16.4h-3.024v-2.184h3.024V16.4z M21.72,11.64h-3.024V9.456h3.024V11.64z"/>
</g>
</svg>
