<?xml version="1.0" encoding="utf-8"?>
<!-- Generator: Adobe Illustrator 17.0.0, SVG Export Plug-In . SVG Version: 6.00 Build 0)  -->
<!DOCTYPE svg PUBLIC "-//W3C//DTD SVG 1.1//EN" "http://www.w3.org/Graphics/SVG/1.1/DTD/svg11.dtd">
<svg version="1.1" id="Layer_1" xmlns="http://www.w3.org/2000/svg" xmlns:xlink="http://www.w3.org/1999/xlink" x="0px" y="0px"
	 width="200px" height="200px" viewBox="0 0 200 200" enable-background="new 0 0 200 200" xml:space="preserve">
<g id="Icon_1_" transform="translate(134.442 -22)">
	<rect id="Rectangle_3" x="-132.442" y="24" fill="none" width="196" height="196"/>
	<g id="Group_6" transform="translate(45 269.882)">
		<path id="Path_6" fill="#F497C0" d="M-83.345-65.604c-4.68-4.278-16.752-18.114-36.838-40.187
			c-13.394-14.719-53.821-58.652-53.821-58.652l-1.887-24.263c0,0,6.115-20.841,13.448-28.841
			c4.038-4.405,13.428-12.155,18.81-14.752c5.05-2.437,21.503-6.378,21.503-6.378l15.442,2.414l10.349,3.964l10.846,5.875
			l6.051,5.248l10.04-7.973l16.489-6.945l14.306-1.603l14.303,2.083l11.68,4.876l10.081,6.809l10.266,11.768l5.86,10.162l2.099,9.62
			l1.272,11.001c0,0-0.692,7.593-1.272,10.061c-0.591,2.518-1.125,7.718-3.408,9.767c-14.565,13.082-53.038,58.121-53.038,58.121
			L-75.52-65.624C-75.52-65.624-79.671-62.247-83.345-65.604z"/>
		<g id="Group_5" transform="translate(0 6.444)">
			
				<line id="Line_3" fill="none" stroke="#513C97" stroke-width="5" stroke-linecap="round" stroke-linejoin="round" x1="-177.442" y1="-143.497" x2="-121.443" y2="-143.497"/>
			
				<line id="Line_4" fill="none" stroke="#513C97" stroke-width="5" stroke-linecap="round" stroke-linejoin="round" x1="-121.443" y1="-143.497" x2="-100.438" y2="-192.497"/>
			
				<line id="Line_5" fill="none" stroke="#513C97" stroke-width="5" stroke-linecap="round" stroke-linejoin="round" x1="-100.438" y1="-192.497" x2="-72.435" y2="-122.492"/>
			
				<line id="Line_6" fill="none" stroke="#513C97" stroke-width="5" stroke-linecap="round" stroke-linejoin="round" x1="-72.443" y1="-122.492" x2="-44.44" y2="-171.492"/>
			
				<line id="Line_7" fill="none" stroke="#513C97" stroke-width="5" stroke-linecap="round" stroke-linejoin="round" x1="-44.448" y1="-171.492" x2="-30.45" y2="-143.489"/>
			
				<line id="Line_8" fill="none" stroke="#513C97" stroke-width="5" stroke-linecap="round" stroke-linejoin="round" x1="-30.442" y1="-143.497" x2="18.558" y2="-143.497"/>
		</g>
		<path id="Path_7" fill="none" stroke="#513C97" stroke-width="5" stroke-linecap="round" stroke-linejoin="round" d="
			M14.115-163.603c9.744-29.623-6.372-61.536-35.995-71.28c-20.236-6.656-42.496-1.356-57.562,13.705
			c-22.064-22.044-57.82-22.027-79.864,0.037c-15.049,15.063-20.347,37.31-13.701,57.538"/>
		<path id="Path_8" fill="none" stroke="#513C97" stroke-width="5" stroke-linecap="round" stroke-linejoin="round" d="
			M-172.093-162.835l87.694,96.367c2.738,2.73,7.168,2.73,9.906,0l87.939-96.367"/>
	</g>
</g>
</svg>
