<?xml version="1.0" encoding="utf-8"?>
<!-- Generator: Adobe Illustrator 17.0.0, SVG Export Plug-In . SVG Version: 6.00 Build 0)  -->
<!DOCTYPE svg PUBLIC "-//W3C//DTD SVG 1.1//EN" "http://www.w3.org/Graphics/SVG/1.1/DTD/svg11.dtd">
<svg version="1.1" id="Layer_1" xmlns="http://www.w3.org/2000/svg" xmlns:xlink="http://www.w3.org/1999/xlink" x="0px" y="0px"
	 width="200px" height="200px" viewBox="0 0 200 200" enable-background="new 0 0 200 200" xml:space="preserve">
<g id="Icon_4_" transform="translate(134.443 110)">
	<rect id="Rectangle_6" x="-132.435" y="-107.996" fill="none" width="195.992" height="195.992"/>
	<g id="Group_22" transform="translate(44.999 270)">
		<path id="Path_18" fill="#FFE196" d="M-159.991-274.896l12.25-23.682l19.599-16.218l15.924-6.533l5.839-0.98l53.669,0.988
			l18.195,5.488l6.721,4.736l11.245-3.699l9.865,1.535l3.74,4.255v4.148l-3.74,2.393l-4.181,6.362l7.921,16.569l3.806,4.638
			l6.892-1.225l4.206,3.528l2.589,5.104v31.645l-2.589,6.076l-4.206,1.576l-18.619,1.07l-5.716,1.788l-6.86,13.319l-6.901,14.879
			l-5.079,8.591l-6.615,2.278H-52.71l-6.043-3.618l-2.948-5.716v-3.846l-13.801-1.119h-19.934l-1.021,3.479l-2.148,7.211
			l-5.937,1.339l-11.229,1.323l-8.044-1.331l-2.654-4.23v-17.002l-4.353-4.9l-12.462-8.272l-10.208-12.903l-6.533-15.696v-23.348
			H-159.991z"/>
		<g id="Group_15" transform="translate(0 5.024)">
			<path id="Path_19" fill="#253958" d="M-103.896-188.947h-14.61c-6.004,0.036-10.905-4.792-10.959-10.796v-14.495
				c-20.623-10.215-34.072-30.825-35.115-53.816c0.004-2.356,0.176-4.708,0.514-7.039c-1.503,1.192-3.087,2.605-4.018,3.438
				c-1.297,1.252-2.699,2.391-4.189,3.405c-1.35,1.055-3.286,0.887-4.434-0.384c-0.952-1.213-0.982-2.911-0.074-4.157
				c4.242-4.566,9.278-8.324,14.863-11.09c9.315-23.479,29.501-40.936,54.078-46.769c17.693-4.219,36.131-4.219,53.824,0
				c9.389,2.325,18.406,5.956,26.786,10.788c7.884-3.549,16.989-3.115,24.499,1.168c1.943,1.143,3.173,3.194,3.266,5.447
				c0.123,3.405-2.278,7.031-7.717,11.539c3.712,4.905,6.633,10.361,8.656,16.169h2.025c7.86-0.38,14.554,5.651,14.993,13.507
				v29.962c-0.453,7.82-7.102,13.826-14.928,13.482h-15.516c-6.343,9.489-11.917,19.47-16.667,29.848
				c-2.842,6.215-6.435,9.408-10.616,9.408h-14.61c-6.004,0.036-10.905-4.792-10.959-10.796v-2.679
				c-9.321,1.343-18.78,1.434-28.125,0.27v2.768c-0.031,6.016-4.934,10.868-10.951,10.837c-0.008,0-0.017,0-0.025,0
				L-103.896-188.947z M-156.904-279.291c-0.949,3.671-1.439,7.445-1.462,11.237c1.166,21.357,14.052,40.316,33.482,49.259
				c1.006,0.539,1.633,1.587,1.633,2.728v16.333c0.054,2.584,2.185,4.639,4.769,4.598h14.61c2.583,0.041,4.712-2.015,4.761-4.598
				v-6.337c0.002-1.714,1.393-3.102,3.106-3.1c0.16,0,0.32,0.013,0.478,0.038c11.035,1.758,22.288,1.645,33.286-0.335
				c1.687-0.302,3.3,0.821,3.602,2.507c0.032,0.178,0.048,0.358,0.049,0.539v6.321c0.049,2.586,2.183,4.643,4.769,4.598h14.61
				c1.495,0,3.332-2.148,5.039-5.888c5.076-11.376,11.278-22.215,18.513-32.355c0.587-0.648,1.42-1.019,2.295-1.021H3.598
				c4.43,0.366,8.339-2.879,8.795-7.301v-29.962c-0.431-4.441-4.348-7.714-8.795-7.35h-4.279c-1.369-0.001-2.574-0.901-2.964-2.213
				c-2.091-6.85-5.547-13.206-10.159-18.685c-1.093-1.32-0.908-3.276,0.412-4.369c0.034-0.028,0.068-0.055,0.103-0.081
				c7.938-6.019,7.742-8.354,7.742-8.37c-0.127-0.188-0.298-0.342-0.498-0.449c-6.294-3.325-13.82-3.343-20.13-0.049
				c-0.97,0.44-2.097,0.354-2.989-0.229c-8.242-5.024-17.223-8.72-26.614-10.951c-16.6-3.86-33.867-3.843-50.46,0.049
				c-23.531,5.46-42.634,22.578-50.631,45.372L-156.904-279.291z"/>
			<path id="Path_20" fill="#253958" d="M-103.896-188.947h-14.61c-6.004,0.036-10.905-4.792-10.959-10.796v-14.495
				c-20.626-10.216-34.075-30.83-35.115-53.824c0.005-2.356,0.177-4.708,0.514-7.039c-1.503,1.192-3.087,2.605-4.018,3.438
				c-1.297,1.252-2.699,2.391-4.189,3.405c-0.641,0.407-1.38,0.632-2.14,0.653c-0.877-0.006-1.711-0.383-2.295-1.037
				c-0.952-1.213-0.982-2.911-0.074-4.157c4.242-4.566,9.278-8.324,14.863-11.09c9.313-23.482,29.499-40.942,54.078-46.777
				c9.36-2.138,18.933-3.202,28.533-3.169c8.548-0.155,17.074,0.92,25.316,3.193c9.389,2.325,18.406,5.956,26.786,10.788
				c3.75-1.518,7.754-2.314,11.8-2.344c4.489-0.087,8.907,1.133,12.715,3.511c1.943,1.143,3.173,3.194,3.266,5.447
				c0.123,3.405-2.278,7.023-7.717,11.539c3.711,4.902,6.632,10.355,8.656,16.161H3.54c7.86-0.38,14.554,5.651,14.993,13.507v29.962
				c-0.453,7.836-7.128,13.849-14.969,13.482h-15.516c-6.343,9.489-11.917,19.47-16.667,29.848
				c-2.842,6.215-6.435,9.408-10.616,9.408h-14.61c-6.006,0.041-10.91-4.79-10.959-10.796v-2.679
				c-9.321,1.343-18.78,1.433-28.125,0.27v2.768C-92.969-193.751-97.879-188.907-103.896-188.947L-103.896-188.947L-103.896-188.947
				z M-79.242-327.611c-9.095-0.039-18.166,0.95-27.039,2.948c-23.529,5.459-42.63,22.574-50.631,45.364
				c-0.948,3.671-1.439,7.445-1.462,11.237c1.163,21.36,14.05,40.323,33.482,49.268c1.006,0.539,1.633,1.587,1.633,2.728v16.333
				c0.054,2.584,2.185,4.639,4.769,4.598h14.61c2.583,0.041,4.712-2.015,4.761-4.598v-6.337c0.002-1.714,1.393-3.102,3.106-3.1
				c0.16,0,0.32,0.013,0.478,0.038c11.035,1.758,22.288,1.645,33.286-0.335c1.682-0.302,3.291,0.817,3.593,2.499
				c0.032,0.181,0.049,0.364,0.049,0.547v6.321c0.049,2.586,2.183,4.643,4.769,4.598h14.61c1.486,0,3.332-2.148,5.039-5.888
				c5.074-11.372,11.273-22.209,18.505-32.347c0.587-0.648,1.42-1.019,2.295-1.021H3.573c4.43,0.366,8.339-2.879,8.795-7.301v-29.97
				c-0.431-4.441-4.348-7.714-8.795-7.35h-4.279c-1.369-0.001-2.574-0.901-2.964-2.213c-2.091-6.85-5.547-13.205-10.159-18.685
				c-1.09-1.322-0.902-3.278,0.421-4.368c0.031-0.025,0.062-0.05,0.094-0.074c7.938-6.019,7.742-8.354,7.733-8.37
				c-0.127-0.188-0.298-0.342-0.498-0.449c-2.808-1.697-6.046-2.547-9.326-2.45c-3.735,0.04-7.418,0.875-10.804,2.45
				c-0.97,0.44-2.097,0.354-2.989-0.229c-8.24-5.021-17.218-8.713-26.606-10.943C-63.439-326.79-71.331-327.766-79.242-327.611
				L-79.242-327.611z"/>
		</g>
		<g id="Group_17" transform="translate(8.346 0.379)">
			<g>
				<defs>
					<ellipse id="SVGID_1_" cx="-88.837" cy="-338.123" rx="28.786" ry="28.99"/>
				</defs>
				<clipPath id="SVGID_2_">
					<use xlink:href="#SVGID_1_"  overflow="visible"/>
				</clipPath>
				<g id="Group_16" clip-path="url(#SVGID_2_)">
					<rect id="Rectangle_7" x="-133.115" y="-382.605" fill="#FFFFFF" width="88.556" height="88.964"/>
				</g>
			</g>
		</g>
		<g id="Group_18" transform="translate(7.911)">
			<path id="Path_21" fill="none" d="M-88.403-305.65c-17.724,0.135-32.203-14.123-32.338-31.848
				c-0.135-17.724,14.123-32.203,31.848-32.338c17.724-0.135,32.202,14.123,32.338,31.848c0.001,0.081,0.001,0.163,0.001,0.244
				C-56.553-320.114-70.773-305.785-88.403-305.65z M-88.403-363.631c-14.301-0.113-25.986,11.389-26.099,25.69
				c-0.113,14.301,11.389,25.986,25.69,26.099c14.301,0.113,25.986-11.389,26.099-25.69c0-0.068,0.001-0.136,0.001-0.203
				C-62.711-351.958-74.181-363.519-88.403-363.631z"/>
			<path id="Path_22" fill="#253958" d="M-88.411-305.65c-17.724,0.135-32.203-14.123-32.338-31.848
				c-0.135-17.724,14.123-32.203,31.848-32.338c17.724-0.135,32.202,14.123,32.338,31.848c0.001,0.081,0.001,0.163,0.001,0.244
				C-56.561-320.114-70.781-305.785-88.411-305.65z M-88.411-363.631c-14.301-0.113-25.986,11.389-26.099,25.69
				c-0.113,14.301,11.389,25.986,25.69,26.099c14.301,0.113,25.986-11.389,26.099-25.69c0-0.071,0.001-0.141,0.001-0.212
				C-62.723-351.963-74.192-363.519-88.411-363.631z"/>
		</g>
		<g id="Group_20" transform="translate(10.774 2.214)">
			<g>
				<defs>
					<path id="SVGID_3_" d="M-80.184-346.156h-4.598c-0.286-2.45-1.605-4.661-3.626-6.076h8.223c0.478,0,0.866-0.388,0.866-0.866
						c0-0.478-0.388-0.866-0.866-0.866h-19.142c-0.478,0-0.866,0.388-0.866,0.866c0,0.478,0.388,0.866,0.866,0.866h5.48
						c3.592-0.062,6.683,2.528,7.252,6.076h-12.731c-0.478,0-0.866,0.388-0.866,0.866s0.388,0.866,0.866,0.866h12.731
						c-0.528,3.583-3.63,6.221-7.252,6.166h-5.472c-0.496-0.004-0.902,0.394-0.906,0.89c0,0.003,0,0.005,0,0.008
						c0.004,0.238,0.104,0.465,0.278,0.629l13.687,12.421c0.358,0.336,0.916,0.336,1.274,0c0.343-0.293,0.383-0.809,0.09-1.151
						c-0.027-0.032-0.058-0.062-0.09-0.09l-12.045-10.927h3.201c4.603,0.079,8.521-3.334,9.073-7.905h4.598
						c0.478,0,0.866-0.388,0.866-0.866s-0.388-0.866-0.866-0.866L-80.184-346.156z"/>
				</defs>
				<clipPath id="SVGID_4_">
					<use xlink:href="#SVGID_3_"  overflow="visible"/>
				</clipPath>
				<g id="Group_19" clip-path="url(#SVGID_4_)">
					<rect id="Rectangle_8" x="-115.724" y="-369.463" fill="#4B7BBE" width="51.938" height="60.872"/>
				</g>
			</g>
		</g>
		<path id="Path_24" fill="#253958" d="M-74.865-320.252c-0.625,0.001-1.229-0.232-1.69-0.653l-13.671-12.429
			c-0.51-0.466-0.806-1.122-0.817-1.813c-0.004-0.663,0.261-1.3,0.735-1.764c0.465-0.456,1.088-0.717,1.74-0.727h5.504
			c2.108,0.015,4.056-1.122,5.08-2.964H-88.6c-1.353,0-2.45-1.097-2.45-2.45s1.097-2.45,2.45-2.45l0,0h10.616
			c-1.047-1.8-2.981-2.898-5.063-2.875H-88.6c-1.353,0-2.45-1.097-2.45-2.45s1.097-2.45,2.45-2.45l0,0h19.15
			c1.353,0,2.45,1.097,2.45,2.45s-1.097,2.45-2.45,2.45h-4.532c0.566,0.887,0.991,1.857,1.258,2.875h3.266
			c1.353,0,2.45,1.097,2.45,2.45s-1.097,2.45-2.45,2.45h-3.266c-1.149,4.395-4.981,7.562-9.514,7.864l8.983,8.166
			c1.009,0.902,1.096,2.45,0.194,3.459c-0.026,0.029-0.053,0.057-0.08,0.085c-0.448,0.488-1.07,0.782-1.731,0.817L-74.865-320.252z"
			/>
		<circle id="Ellipse_4" fill="#FFFFFF" cx="-22.274" cy="-271.834" r="8.166"/>
		<g id="Group_21" transform="translate(17.748 10.961)">
			<path id="Path_25" fill="none" d="M-40.667-272.186c-5.268,0.023-9.556-4.229-9.579-9.497c-0.022-5.268,4.23-9.557,9.497-9.579
				s9.556,4.23,9.579,9.497c0,0.014,0,0.027,0,0.041C-31.169-276.473-35.415-272.209-40.667-272.186z M-40.667-285.073
				c-1.844-0.041-3.372,1.422-3.413,3.266c-0.041,1.844,1.422,3.372,3.266,3.413s3.372-1.421,3.413-3.266
				c0-0.024,0.001-0.048,0.001-0.073C-37.4-283.549-38.851-285.033-40.667-285.073z"/>
			<path id="Path_26" fill="#253958" d="M-40.667-272.186c-5.268,0.023-9.556-4.229-9.579-9.497
				c-0.022-5.268,4.23-9.557,9.497-9.579s9.556,4.23,9.579,9.497c0,0.014,0,0.027,0,0.041
				C-31.169-276.473-35.415-272.209-40.667-272.186z M-40.667-285.073c-1.844-0.041-3.372,1.422-3.413,3.266
				c-0.041,1.844,1.422,3.372,3.266,3.413s3.372-1.421,3.413-3.266c0-0.024,0.001-0.048,0.001-0.073
				C-37.4-283.549-38.851-285.033-40.667-285.073z"/>
		</g>
		<path id="Path_27" fill="#253958" d="M-51.721-297.778c-0.501-0.001-0.994-0.125-1.437-0.359
			c-16.86-10.027-37.855-10.027-54.715,0c-1.515,0.794-3.387,0.209-4.181-1.307c-0.794-1.515-0.209-3.387,1.307-4.181
			c18.651-10.966,41.78-10.966,60.431,0c1.515,0.8,2.095,2.678,1.295,4.193c-0.535,1.013-1.586,1.649-2.732,1.654H-51.721z"/>
	</g>
</g>
</svg>
