<?xml version="1.0" encoding="utf-8"?>
<!-- Generator: Adobe Illustrator 17.0.0, SVG Export Plug-In . SVG Version: 6.00 Build 0)  -->
<!DOCTYPE svg PUBLIC "-//W3C//DTD SVG 1.1//EN" "http://www.w3.org/Graphics/SVG/1.1/DTD/svg11.dtd">
<svg version="1.1" id="b098510b-f452-4b85-993b-a1bbfe267c61"
	 xmlns="http://www.w3.org/2000/svg" xmlns:xlink="http://www.w3.org/1999/xlink" x="0px" y="0px" width="1105.04px"
	 height="782.74px" viewBox="0 0 1105.04 782.74" enable-background="new 0 0 1105.04 782.74" xml:space="preserve">
<title>medicine</title>
<ellipse opacity="0.3" fill="#FFFFFF" cx="367.38" cy="766.65" rx="97.44" ry="15.65"/>
<ellipse opacity="0.3" fill="#FFFFFF" cx="897.05" cy="767.09" rx="121.59" ry="15.65"/>
<path opacity="0.1" fill="#6C63FF" enable-background="new    " d="M13.84,338.2h101.49v138.33H21.27
	c-0.25,1.42-0.49,2.85-0.75,4.28h94.81v111.56c-0.17-0.05-0.32-0.11-0.48-0.17c-2.68-1.06-5.34-2.18-8-3.38l-1.7-0.77
	c-2.667-1.26-5.333-2.593-8-4c-0.93-0.49-1.86-1-2.78-1.52c-14.804-8.293-28.253-18.801-39.88-31.16c-0.34-0.33-0.66-0.68-1-1
	c-1.62-1.76-3.21-3.54-4.75-5.36l-1.7-2c-1.82-2.23-3.58-4.52-5.29-6.84c-0.25-0.34-0.49-0.68-0.75-1
	c-6.955-9.643-12.729-20.084-17.2-31.1c-0.14-0.33-0.26-0.69-0.39-1c-1.373-3.533-2.59-7.1-3.65-10.7c-0.46-1.51-0.9-3-1.28-4.57
	c-0.14-0.46-0.26-0.91-0.37-1.36c-5.68-22.17-6.35-45.2-6.35-68.07c0-2.67,0-5.35,0-8c0-9.25,0.11-18.56,0.27-27.86
	c0-2.41,0.1-4.81,0.15-7.23c0.14-6.14,0.34-12.28,0.6-18.42c0.06-1.71,0.14-3.41,0.23-5.11c0-0.98,0.05-1.96,0.15-2.94
	C13.4,345.25,13.6,341.72,13.84,338.2z"/>
<path opacity="0.1" fill="#F0F0F7" enable-background="new    " d="M115.33,184.18H59.66c9.049-14.164,18.937-27.775,29.61-40.76
	c8.27-10.16,17-20.06,26.06-29.6V184.18z"/>
<path opacity="0.1" fill="#F0F0F7" enable-background="new    " d="M115.33,188.46v145.46H14.16c0-0.42,0.07-0.85,0.1-1.27
	c0.09-1.15,0.18-2.3,0.28-3.44c0.11-1.34,0.23-2.69,0.36-4s0.27-2.91,0.42-4.36s0.29-2.92,0.46-4.37s0.32-2.9,0.5-4.34
	s0.34-2.9,0.53-4.34c0.15-1.2,0.31-2.39,0.47-3.59c0.23-1.69,0.47-3.39,0.73-5.07c0-0.25,0.07-0.51,0.11-0.75
	c1.825-12.298,4.312-24.489,7.45-36.52c3.285-12.62,7.479-24.986,12.55-37c5.39-12.568,11.7-24.721,18.88-36.36L115.33,188.46z"/>
<path opacity="0.1" fill="#F0F0F7" enable-background="new    " d="M139.56,338.19v138.34h216.77V338.19H139.56z M139.56,480.8
	v118.8c1.24,0.26,2.47,0.51,3.69,0.72c1.66,0.32,3.31,0.61,5,0.86c0.32,0.05,0.65,0.1,1,0.13c0.66,0.11,1.34,0.2,2,0.29
	c1.67,0.23,3.33,0.42,5,0.57c0.79,0.08,1.59,0.15,2.39,0.21l1.93,0.15l0,0c1.05,0.08,2.09,0.14,3.12,0.17
	c0.64,0,1.28,0.06,1.94,0.08c0.5,0,1,0,1.52,0s1.26,0,1.89,0c0.86,0,1.72,0,2.57,0h1.15c0.86,0,1.72,0,2.57-0.08h0.06
	c0.59,0,1.19,0,1.79-0.08c0.167,0.01,0.333,0.01,0.5,0c0.5,0,1,0,1.48-0.07h0.35l3.35-0.26c1.1-0.1,2.21-0.23,3.33-0.35l2.28-0.27
	c9.276-1.3,18.448-3.251,27.45-5.84c20.22-5.64,40-13.53,60.21-19.31c26.13-7.45,55-11.11,80.25-2V480.8H139.56z M356.33,184.18
	V0.01c-23.733-0.257-47.401,2.519-70.43,8.26c-54.89,13.79-104.14,43.7-146.34,81.9v94h10.88v4.27h-10.88v145.48h216.77V188.45
	H195.11v-4.27H356.33z M634.76,121.97c-13.58-0.48-27.08-4.78-39.29-11.42c-23.35-12.7-42-32.31-62.84-48.86
	c-43.3-34.47-97-55.27-152.09-60.43v182.92h309.45l0.77-0.81L634.76,121.97z M662.95,116.97l29.89,32.8v-41.4
	c-10.01,1.24-18.78,4.19-29.85,8.56L662.95,116.97z M692.84,629.1V480.8h-63.69c-0.17-0.63-0.34-1.27-0.54-1.91
	c0.19,0.64,0.35,1.28,0.53,1.91H380.58v107.25c2.36,1.75,4.69,3.59,7,5.46l0,0c2.49,2,4.95,4.11,7.42,6.18l2.49,2.06
	c1.19,1,2.39,2,3.6,2.94c2.4,1.947,4.823,3.867,7.27,5.76c1.21,1,2.45,1.9,3.68,2.84c19.527,14.93,40.126,28.403,61.63,40.31
	c4.82,2.667,9.683,5.27,14.59,7.81c3.27,1.67,6.56,3.33,9.86,4.94c4.96,2.42,9.96,4.753,15,7l0,0
	c46.466,20.858,95.601,35.171,146,42.53c11.193,1.653,22.43,2.953,33.71,3.9v-90.69h1L692.84,629.1z M380.58,188.45v145.47h312.3
	V188.45H380.58z M380.58,338.19v138.34h312.3V338.19H380.58z M717.12,108.19v46.18l38.15-41.86c-12.64-2.04-25.357-3.497-38.15-4.37
	V108.19z M717.12,338.24v138.29h303.75V338.19L717.12,338.24z M1019.76,640.08l1.07-159.28H717.12v240.57
	c19.565,0.822,39.16,0.588,58.7-0.7l0,0h0.34c9.333-0.587,18.623-1.44,27.87-2.56h0.21c49.331-5.741,97.567-18.612,143.2-38.21
	 M1079.44,360.97c-1.14-2.69-2.33-5.36-3.54-8c-2.26-5-4.65-9.86-7.11-14.72h-23.7v138.28h59.92
	c-0.03-39.16-9.94-79.16-25.54-115.61L1079.44,360.97z M1045.09,480.85v137c16.88-16.18,31.14-34.69,41.41-55.85
	c12.35-25.48,18-53.07,18.46-81.17L1045.09,480.85z M1045.09,297.93v36h21.48c-6.498-12.393-13.658-24.427-21.45-36.05
	L1045.09,297.93z M839.09,135.33c-1.58-0.6-3.16-1.21-4.75-1.8c-16.769-6.193-33.905-11.343-51.31-15.42l-58.38,64.07l0,0
	l-1.12,1.19l0.75,0.82h207.78c-28.938-19.92-60.136-36.337-92.94-48.91L839.09,135.33z M938.15,188.5H721.38l-4.26,3.9v141.52h37.34
	h0.06l0,0h266.39v-68.55c-24.098-29.144-51.911-55.004-82.73-76.92L938.15,188.5z"/>
<path opacity="0.1" fill="#FFFFFF" enable-background="new    " d="M115.33,261.83v72.09H14.16c0-0.42,0.07-0.85,0.1-1.27
	c0.09-1.15,0.18-2.3,0.28-3.44c0.11-1.34,0.23-2.69,0.36-4s0.27-2.91,0.42-4.36s0.29-2.92,0.46-4.37s0.32-2.9,0.5-4.34
	s0.34-2.9,0.53-4.34c0.15-1.2,0.31-2.39,0.47-3.59c0.23-1.69,0.47-3.39,0.73-5.07c0-0.25,0.07-0.51,0.11-0.75
	c1.825-12.298,4.312-24.489,7.45-36.52L115.33,261.83z"/>
<path opacity="0.1" fill="#FFFFFF" enable-background="new    " d="M13.84,338.2h101.49v138.33H21.27
	c-0.25,1.42-0.49,2.85-0.75,4.28h94.81v111.56c-0.17-0.05-0.32-0.11-0.48-0.17c-2.68-1.06-5.34-2.18-8-3.38l-1.7-0.77
	c-2.667-1.26-5.333-2.593-8-4c-0.93-0.49-1.86-1-2.78-1.52c-14.804-8.293-28.253-18.801-39.88-31.16c-0.34-0.33-0.66-0.68-1-1
	c-1.62-1.76-3.21-3.54-4.75-5.36l-1.7-2c-1.82-2.23-3.58-4.52-5.29-6.84c-0.25-0.34-0.49-0.68-0.75-1
	c-6.955-9.643-12.729-20.084-17.2-31.1c-0.14-0.33-0.26-0.69-0.39-1c-1.373-3.533-2.59-7.1-3.65-10.7c-0.46-1.51-0.9-3-1.28-4.57
	c-0.14-0.46-0.26-0.91-0.37-1.36c-5.68-22.17-6.35-45.2-6.35-68.07c0-2.67,0-5.35,0-8c0-9.25,0.11-18.56,0.27-27.86
	c0-2.41,0.1-4.81,0.15-7.23c0.14-6.14,0.34-12.28,0.6-18.42c0.06-1.71,0.14-3.41,0.23-5.11c0-0.98,0.05-1.96,0.15-2.94
	C13.4,345.25,13.6,341.72,13.84,338.2z"/>
<polygon opacity="0.1" fill="#FFFFFF" enable-background="new    " points="215.87,209.28 215.87,333.92 139.56,333.92 
	139.56,209.28 150.44,209.28 150.44,167.08 195.1,167.08 195.1,209.28 "/>
<rect x="139.57" y="338.19" opacity="0.1" fill="#FFFFFF" enable-background="new    " width="76.3" height="138.33"/>
<path opacity="0.1" fill="#6C63FF" enable-background="new    " d="M139.56,480.81h76.31v115c-9.001,2.586-18.174,4.535-27.45,5.83
	l-2.28,0.28c-1.12,0.13-2.23,0.24-3.33,0.35s-2.24,0.19-3.35,0.26h-0.35c-0.48,0-1,0.06-1.47,0.07h-0.51c-0.6,0-1.2,0.06-1.8,0.08
	l0,0c-0.85,0.05-1.7,0.06-2.57,0.07c-0.37,0-0.72,0-1.09,0c-0.86,0-1.71,0-2.57,0h-1.89c-0.51,0-1,0-1.53,0l-1.93-0.07
	c-1,0-2.08-0.11-3.12-0.18l0,0l-1.92-0.14l-2.39-0.22c-1.68-0.15-3.35-0.34-5-0.57l-2-0.28l-1-0.14c-1.67-0.26-3.32-0.54-5-0.86
	c-1.23-0.21-2.45-0.47-3.69-0.72L139.56,480.81z"/>
<rect x="629.96" y="194.56" opacity="0.1" fill="#6C63FF" enable-background="new    " width="62.92" height="139.35"/>
<polygon opacity="0.1" fill="#FFFFFF" enable-background="new    " points="692.89,338.19 692.89,476.53 380.58,476.53 
	380.58,416.86 546.93,416.86 546.93,452.06 629.96,452.06 629.96,338.19 "/>
<path opacity="0.1" fill="#FFFFFF" enable-background="new    " d="M693.88,629.13h-1v90.75c-11.267-0.953-22.5-2.25-33.7-3.89
	c-50.424-7.382-99.579-21.726-146.06-42.62c-13.42-6.04-26.567-12.633-39.44-19.78c-21.504-11.913-42.105-25.386-61.64-40.31
	c-4.907-3.76-9.75-7.607-14.53-11.54c-3.31-2.73-6.6-5.53-9.93-8.25c-2.31-1.87-4.64-3.71-7-5.47V480.81h248.55
	c-0.17-0.64-0.34-1.28-0.52-1.91c0.19,0.63,0.37,1.27,0.54,1.91h63.73v148.26C693.22,629.08,693.55,629.11,693.88,629.13z"/>
<path opacity="0.1" fill="#6C63FF" enable-background="new    " d="M856.98,184.18h-41v-12.74h18.38v-37.95
	c1.593,0.58,3.18,1.177,4.76,1.79v36.16h17.86V184.18z"/>
<path opacity="0.1" fill="#FFFFFF" enable-background="new    " d="M955.76,333.92H754.48c0,0,0,0,0.07,0.05l-0.09-0.05h-37.34
	V194.57h10.58v103h48.35v-61h39.94v-48.11h41v48.15h39.94v61h58.83V333.92z"/>
<path opacity="0.1" fill="#FFFFFF" enable-background="new    " d="M717.12,338.19v138.34h238.64V338.19H717.12z M1020.54,639.37
	l0.33-109.5h-65.11v-49H717.12v240.5c19.565,0.822,39.16,0.588,58.7-0.7l0,0h0.34c9.333-0.587,18.623-1.44,27.87-2.56h0.21
	c49.331-5.741,97.567-18.612,143.2-38.21"/>
<path opacity="0.1" fill="#FFFFFF" enable-background="new    " d="M1049.33,480.81H1105c-0.49,28.09-6.13,55.68-18.47,81.16
	c-10.27,21.17-24.54,39.68-41.4,55.85v-88h4.2V480.81z"/>
<path opacity="0.1" fill="#FFFFFF" enable-background="new    " d="M1105.03,476.53h-55.7V360.92h30.14
	C1095.07,397.37,1104.98,437.37,1105.03,476.53z"/>
<rect x="659.18" y="233.3" opacity="0.1" fill="#6C63FF" enable-background="new    " width="33.71" height="43.69"/>
<rect x="659.18" y="323.86" opacity="0.1" fill="#6C63FF" enable-background="new    " width="33.71" height="10.06"/>
<rect x="659.18" y="338.19" opacity="0.1" fill="#6C63FF" enable-background="new    " width="33.71" height="29.35"/>
<rect x="659.18" y="414.42" opacity="0.1" fill="#6C63FF" enable-background="new    " width="33.71" height="43.69"/>
<rect x="659.18" y="504.98" opacity="0.1" fill="#6C63FF" enable-background="new    " width="33.71" height="43.69"/>
<path opacity="0.1" fill="#6C63FF" enable-background="new    " d="M692.88,629.07c0.34,0,0.67,0,1,0.06h-1v10.15h-33.7v-43.74h33.7
	V629.07z"/>
<path opacity="0.1" fill="#6C63FF" enable-background="new    " d="M692.88,686.08v33.75c-11.267-0.953-22.5-2.25-33.7-3.89v-29.86
	H692.88z"/>
<rect x="380.58" y="473.32" opacity="0.1" fill="#6C63FF" enable-background="new    " width="144.47" height="3.21"/>
<rect x="380.58" y="480.8" opacity="0.1" fill="#6C63FF" enable-background="new    " width="144.47" height="12.3"/>
<rect x="380.58" y="533.42" opacity="0.1" fill="#6C63FF" enable-background="new    " width="144.47" height="19.78"/>
<path opacity="0.1" fill="#6C63FF" enable-background="new    " d="M525.04,593.52v19.78h-113c-4.907-3.747-9.753-7.593-14.54-11.54
	c-3.31-2.73-6.59-5.53-9.93-8.24L525.04,593.52z"/>
<path opacity="0.1" fill="#6C63FF" enable-background="new    " d="M525.04,653.61v19.76h-11.93
	c-13.407-6.047-26.55-12.643-39.43-19.79L525.04,653.61z"/>
<rect x="775.83" y="351.6" opacity="0.1" fill="#6C63FF" enable-background="new    " width="28.44" height="28.44"/>
<rect x="160.05" y="219.09" opacity="0.1" fill="#6C63FF" enable-background="new    " width="28.44" height="28.44"/>
<rect x="160.05" y="285.15" opacity="0.1" fill="#6C63FF" enable-background="new    " width="28.44" height="28.44"/>
<rect x="160.05" y="351.21" opacity="0.1" fill="#6C63FF" enable-background="new    " width="28.44" height="28.44"/>
<rect x="160.05" y="417.26" opacity="0.1" fill="#6C63FF" enable-background="new    " width="28.44" height="28.44"/>
<rect x="160.05" y="483.32" opacity="0.1" fill="#6C63FF" enable-background="new    " width="28.44" height="28.44"/>
<rect x="160.05" y="549.38" opacity="0.1" fill="#6C63FF" enable-background="new    " width="28.44" height="28.44"/>
<rect x="884.4" y="351.6" opacity="0.1" fill="#6C63FF" enable-background="new    " width="28.44" height="28.44"/>
<rect x="775.83" y="421.75" opacity="0.1" fill="#6C63FF" enable-background="new    " width="28.44" height="28.44"/>
<rect x="884.4" y="421.75" opacity="0.1" fill="#6C63FF" enable-background="new    " width="28.44" height="28.44"/>
<rect x="775.83" y="491.89" opacity="0.1" fill="#6C63FF" enable-background="new    " width="28.44" height="28.44"/>
<rect x="884.4" y="491.89" opacity="0.1" fill="#6C63FF" enable-background="new    " width="28.44" height="28.44"/>
<rect x="775.83" y="562.04" opacity="0.1" fill="#6C63FF" enable-background="new    " width="28.44" height="28.44"/>
<rect x="884.4" y="562.04" opacity="0.1" fill="#6C63FF" enable-background="new    " width="28.44" height="28.44"/>
<rect x="775.83" y="632.19" opacity="0.1" fill="#6C63FF" enable-background="new    " width="28.44" height="28.44"/>
<rect x="884.4" y="632.19" opacity="0.1" fill="#6C63FF" enable-background="new    " width="28.44" height="28.44"/>
<polygon opacity="0.1" fill="#6C63FF" enable-background="new    " points="775.83,720.67 775.83,702.33 804.26,702.33 
	804.26,718.06 "/>
<path opacity="0.1" fill="#6C63FF" enable-background="new    " d="M18,298.37v16.27h97.33v-16.27H18z M27.7,313.62h-7.94v-14.25h8
	L27.7,313.62z M37.39,313.62h-8v-14.25h8V313.62z M47.06,313.62h-8v-14.25h8V313.62z M56.75,313.62h-7.99v-14.25h8L56.75,313.62z
	 M66.43,313.62h-8v-14.25h8V313.62z M76.12,313.62h-8v-14.25h8V313.62z M85.81,313.62h-8v-14.25h8V313.62z M95.49,313.62h-8v-14.25
	h8V313.62z M105.17,313.62h-8v-14.25h8V313.62z M114.85,313.62h-8v-14.25h8V313.62z"/>
<path opacity="0.1" fill="#6C63FF" enable-background="new    " d="M18,345.71v16.27h97.33v-16.27H18z M27.7,360.95h-7.94v-14.21h8
	L27.7,360.95z M37.39,360.95h-8v-14.21h8V360.95z M47.06,360.95h-8v-14.21h8V360.95z M56.75,360.95h-7.99v-14.21h8L56.75,360.95z
	 M66.43,360.95h-8v-14.21h8V360.95z M76.12,360.95h-8v-14.21h8V360.95z M85.81,360.95h-8v-14.21h8V360.95z M95.49,360.95h-8v-14.21
	h8V360.95z M105.17,360.95h-8v-14.21h8V360.95z M114.85,360.95h-8v-14.21h8V360.95z"/>
<path opacity="0.1" fill="#6C63FF" enable-background="new    " d="M18,393.07v16.3h97.33v-16.3H18z M27.7,408.31h-7.94v-14.22h8
	L27.7,408.31z M37.39,408.31h-8v-14.22h8V408.31z M47.06,408.31h-8v-14.22h8V408.31z M56.75,408.31h-7.99v-14.22h8L56.75,408.31z
	 M66.43,408.31h-8v-14.22h8V408.31z M76.12,408.31h-8v-14.22h8V408.31z M85.81,408.31h-8v-14.22h8V408.31z M95.49,408.31h-8v-14.22
	h8V408.31z M105.17,408.31h-8v-14.22h8V408.31z M114.85,408.31h-8v-14.22h8V408.31z"/>
<path opacity="0.1" fill="#6C63FF" enable-background="new    " d="M18,440.43v16.25h97.33v-16.25H18z M27.7,455.67h-7.94v-14.23h8
	L27.7,455.67z M37.39,455.67h-8v-14.23h8V455.67z M47.06,455.67h-8v-14.23h8V455.67z M56.75,455.67h-7.99v-14.23h8L56.75,455.67z
	 M66.43,455.67h-8v-14.23h8V455.67z M76.12,455.67h-8v-14.23h8V455.67z M85.81,455.67h-8v-14.23h8V455.67z M95.49,455.67h-8v-14.23
	h8V455.67z M105.17,455.67h-8v-14.23h8V455.67z M114.85,455.67h-8v-14.23h8V455.67z"/>
<path opacity="0.1" fill="#6C63FF" enable-background="new    " d="M18.42,487.78c0.39,1.53,0.83,3.06,1.29,4.57v-3.55h8v14.22
	h-4.28c0.13,0.33,0.26,0.69,0.39,1h91.51v-16.24H18.42z M37.42,503.02h-8V488.8h8V503.02z M47.09,503.02h-8V488.8h8V503.02z
	 M56.78,503.02h-8.02V488.8h8L56.78,503.02z M66.46,503.02h-8V488.8h8V503.02z M76.15,503.02h-8V488.8h8V503.02z M85.84,503.02h-8
	V488.8h8V503.02z M95.52,503.02h-8V488.8h8V503.02z M105.2,503.02h-8V488.8h8V503.02z M114.88,503.02h-8V488.8h8V503.02z"/>
<path opacity="0.1" fill="#6C63FF" enable-background="new    " d="M41.02,535.14c0.25,0.32,0.49,0.68,0.75,1h5.29v6.83
	c0.57,0.68,1.13,1.36,1.71,2v-8.87h8v14.27h-3.24c0.32,0.33,0.63,0.68,1,1h60.83v-16.23H41.02z M66.43,550.37h-8v-14.21h8V550.37z
	 M76.12,550.37h-8v-14.21h8V550.37z M85.81,550.37h-8v-14.21h8V550.37z M95.49,550.37h-8v-14.21h8V550.37z M105.17,550.37h-8v-14.21
	h8V550.37z M114.85,550.37h-8v-14.21h8V550.37z"/>
<path opacity="0.1" fill="#6C63FF" enable-background="new    " d="M94.41,582.49c0.91,0.52,1.84,1,2.78,1.52v-0.5h8v4.5l1.7,0.79
	v-5.29h8v8.65c0.153,0.076,0.314,0.137,0.48,0.18v-9.85L94.41,582.49z"/>
<path opacity="0.1" fill="#6C63FF" enable-background="new    " d="M754.48,333.92L754.48,333.92h0.06H754.48z M692.88,629.06
	L692.88,629.06h1H692.88z M628.61,478.89c0.19,0.64,0.35,1.28,0.53,1.91l0,0C628.98,480.17,628.81,479.53,628.61,478.89z
	 M754.48,333.89L754.48,333.89h0.06H754.48z M150.48,184.15v4.27h44.67v-4.27H150.48z M692.88,629.06L692.88,629.06h1H692.88z
	 M628.61,478.89c0.19,0.64,0.35,1.28,0.53,1.91l0,0C628.98,480.17,628.81,479.53,628.61,478.89z M754.48,333.89L754.48,333.89h0.06
	H754.48z M692.88,629.03L692.88,629.03h1H692.88z M628.61,478.89c0.19,0.64,0.35,1.28,0.53,1.91l0,0
	C628.98,480.17,628.81,479.53,628.61,478.89z"/>
<linearGradient id="SVGID_1_" gradientUnits="userSpaceOnUse" x1="609.5807" y1="-345.7391" x2="609.5807" y2="269.5811" gradientTransform="matrix(1 0 0 -1 -253.24 429.11)">
	<stop  offset="0" style="stop-color:#808080;stop-opacity:0.25"/>
	<stop  offset="0.54" style="stop-color:#808080;stop-opacity:0.12"/>
	<stop  offset="1" style="stop-color:#808080;stop-opacity:0.1"/>
</linearGradient>
<path fill="url(#SVGID_1_)" d="M461.6,379.67c0,0-3.94-0.55-3.94-6.29s-2.82-16.46-2.82-16.46l0,0c0-0.05-2.44-18.67-5.81-21.63
	s-7.7-20.34-7.7-20.34s-0.74-9.43-2.25-11.46s-3.55-7-6.56-14.09s-15.56-12-15.56-12s-22.69-13.16-29.12-17.45l0,0
	c-0.584-0.352-1.131-0.765-1.63-1.23c-1.12-1.47-6-1.5-6-1.5c-0.51-3.22-1-6.92-1.16-10.27c0-0.36,0-0.72-0.05-1.08
	c7.17-4.238,12.57-10.92,15.21-18.82c0.12-0.38,0.22-0.78,0.33-1.16c0.869-0.286,1.577-0.925,1.95-1.76c0.58-1.29,0.59-2.8,1.31-4
	c0.84-1.42,2.44-2.18,3.7-3.25c3.18-2.7,4-7.25,3.85-11.39c-0.1-3.35-0.64-6.73-0.43-10.06l0.06-0.84c0.06-0.5,0.13-1,0.22-1.48
	c0.49-2.48,1.56-4.82,2.16-7.28s0.66-5.23-0.74-7.35c-2.05-3.11-6.32-3.73-10.07-4.05c-4.25-0.36-8.05,0.11-10.77-3.42
	c-1.273-1.845-2.705-3.575-4.28-5.17c-0.56-0.52-6-3.84-6-4.06c-5.309-2.459-11.328-2.921-16.95-1.3c-2.82,0.82-5.48,2.16-8.34,2.83
	c-6.17,1.46-13.27-0.12-18.51,3.41c-2.92,2-4.67,5.18-6.31,8.28c-1.333,2.553-2.687,5.103-4.06,7.65
	c-2.21,4.19-4.46,8.45-5.39,13.09c-0.196,1.01-0.316,2.033-0.36,3.06l0,0v0.05c0,0.37,0,0.74,0,1.11v0.47c0,0.35,0,0.69,0.06,1
	s0.05,0.41,0.08,0.62s0.08,0.68,0.14,1s0.18,0.88,0.3,1.32c0.05,0.19,0.12,0.37,0.18,0.55c0.1,0.34,0.22,0.67,0.35,1
	c0.07,0.17,0.14,0.35,0.22,0.52c0.15,0.35,0.33,0.69,0.51,1c0.08,0.14,0.14,0.27,0.22,0.4c0.279,0.465,0.586,0.913,0.92,1.34
	c2.14,2.67,5.29,4.37,7.62,6.87c0,0.1,0,0.2,0,0.29c0,0.28,0,0.55,0,0.83c0.251,11.32,6.084,21.784,15.58,27.95
	c0,0.38,0.05,0.77,0.07,1.15c0.195,2.968,0.158,5.947-0.11,8.91c-0.825-0.971-2.046-1.516-3.32-1.48
	c-0.43-0.021-0.86,0.016-1.28,0.11l-0.09-0.07l0,0v0.09c-2.2,0.54-4.91,2.83-7.5,9.34c0,0-7.88,8.88-13.88,8.51
	s-21.19,9.24-21.19,9.24s-14.82,9.62-18,19.42c-1.777,5.557-3.909,10.995-6.38,16.28l-18.32,37.75l0,0l-3.38,29.95
	c0,0,1.87,13.32,1.5,15.35s7.69,20.34,7.69,20.34s26.63,46.79,37.51,49.19l0.78-0.55c0.465,0.243,0.959,0.428,1.47,0.55l2.24-1.58
	c0.134,1.761,0.078,3.531-0.17,5.28c-1.5,4.62,0.56,34.77,3.18,40.68s1.69,83.4,1.69,83.4l-0.37,6.84c0,0,0,0.22,0.09,0.6
	l-0.09,1.62l0.27,0.14c0.28,2.17,0.189,4.371-0.27,6.51c-0.94,3-1.32,11.48-1.32,11.48s-7.49,47.88-3.94,57.5s6.57,20.16,6.57,20.16
	s3.75,12,0.18,14.05s-13.72,5.49-11.63,10.49c1.9,4.62,9.11,17,10.18,18.81l-0.09,0.95l-1.47,15.93
	c0.238,2.103,0.808,4.156,1.69,6.08c1.61,3.47,4.74,7.07,10.69,6.68c1-0.07,2.16-0.19,3.28-0.34c10.89-1.46,24.3-6.32,24.3-6.32
	c-0.696-0.442-1.334-0.97-1.9-1.57l0,0c-1.082-1.048-1.686-2.494-1.67-4c0.16-2.9-5.27-16.72-6.62-20.12
	c-0.21-0.49-0.32-0.77-0.32-0.77s12.38-12.94,10.32-24.41c0,0-13.7-8-9.19-12.39s12.57-17,12.57-17s0.37-47.15,0-54.19
	c-0.386-4.886-0.154-9.802,0.69-14.63c0.15-0.73,0.33-1.44,0.52-2.14c6.237,0.931,12.534,1.409,18.84,1.43c2.3,0,4.64,0,7-0.14
	c0,0.667,0.03,1.387,0.09,2.16c0.52,11.68,1.49,32.16,2.28,39.77c1.12,10.91,7.31,40.31,7.31,40.31s-11.81,7.58,2.06,26.26
	c0,0,0,6.77-0.92,7.75l0,0c-0.982,3.204-1.774,6.463-2.37,9.76c-0.58,3.52-0.82,7.08,0.12,8.93c2.25,4.42,15.75,4.06,15.75,4.06l0,0
	l0.33-0.06c5.148-0.532,10.295,1.02,14.29,4.31c5.13,4.12,24.6,2.31,35.14,1c4.13-0.52,6.89-1,6.89-1
	c0.134-0.468,0.181-0.956,0.14-1.44l0,0c-0.11-2.59-2.14-8.27-15.9-13.34c0,0-12.94-8.7-12.76-16.28h-0.27h-1.5
	c1.09-0.06,1.79,0,1.79,0s-5.07-18.5-3-20s-4.13-22-4.13-22s-3.55-34.4-3.74-36.81c0.008-2.068,0.321-4.124,0.93-6.1l-0.93-18.86
	c0,0-0.18-6.27,0-8.31c-0.03-1.771-0.174-3.538-0.43-5.29c-0.09-0.7-0.18-1.43-0.28-2.15c4.85-1.23,8-2.37,8-2.37l-0.56-65.65
	c4.12-8,4.88-25.55,4.86-38c0-8-0.36-13.92-0.36-13.92l5.63-9.19c0,0,1.3-11-0.76-13.41c-0.91-1.09-0.5-2.22,0.25-3.15
	c0.39-0.309,0.801-0.59,1.23-0.84c0,0-0.06-0.09-0.13-0.22c0.393-0.328,0.811-0.626,1.25-0.89c0,0-2-3.1-0.21-4.41
	c1.68,1.14,3.18,2,4.32,2.7c-0.08,0.73-0.16,1.15-0.16,1.15l0.48-1c1.1,0.62,1.77,1,1.77,1s8.82-17.57,8.63-20.16s6-13.5,6-13.5
	s0.75-5.73,4.13-8.13s2.62-19.79,2.62-19.79s0.94-9.06,3.19-12.76S461.6,379.67,461.6,379.67z M292.84,371.96l0.17,4.19
	c-1-1.61-1.72-2.77-1.72-2.77L292.84,371.96z"/>
<path fill="#FFFFFF" d="M439.56,455.11l-2.16,9.2c0,0-17.3-8.83-20.42-20.05s5.22-15.48,5.22-15.48l16.12,6.83L439.56,455.11z"/>
<path opacity="0.1" enable-background="new    " d="M439.56,455.11l-2.16,9.2c0,0-17.3-8.83-20.42-20.05s5.22-15.48,5.22-15.48
	l16.12,6.83L439.56,455.11z"/>
<path fill="#FFFFFF" d="M342.47,768.22c0,0-16,5.88-27,6.62c-5.84,0.39-8.91-3.19-10.49-6.64c-0.863-1.918-1.42-3.959-1.65-6.05
	l1.43-15.85l0.76-8.44l23.37-6.07l3.31,10.12l0.31,0.77c1.33,3.38,6.66,17.13,6.5,20c-0.013,1.485,0.579,2.911,1.64,3.95
	C341.187,767.235,341.798,767.77,342.47,768.22z"/>
<path fill="#FFFFFF" d="M451.76,760.16c0.04,0.481-0.007,0.966-0.14,1.43c0,0-34.22,5.71-41.22,0c-3.991-3.373-9.22-4.905-14.4-4.22
	c0,0-13.24,0.36-15.45-4c-0.92-1.83-0.68-5.38-0.11-8.88c0.582-3.28,1.356-6.522,2.32-9.71l0.53-0.42l3.15-2.53l36.88-1.09h0.28
	c-0.18,7.54,12.52,16.19,12.52,16.19C449.61,751.93,451.6,757.58,451.76,760.16z"/>
<path opacity="0.1" enable-background="new    " d="M451.76,760.16c0.035,0.482-0.016,0.966-0.15,1.43c0,0-34.21,5.71-41.21,0
	c-3.988-3.37-9.213-4.903-14.39-4.22c0,0-13.25,0.36-15.45-4c-0.92-1.84-0.69-5.38-0.12-8.88c5.1,0.51,13.15,1.78,16.31,4.81
	c4.78,4.61,12.88,9.21,17.85,9.57C418.49,759.12,441.76,759.86,451.76,760.16z"/>
<path opacity="0.1" enable-background="new    " d="M342.47,768.22c0,0-16,5.88-27,6.62c-5.84,0.39-8.91-3.19-10.48-6.65
	c4.07,1.37,9.72,2.81,12.69,1.49c3.52-1.56,16-2.57,23-3C341.213,767.263,341.814,767.78,342.47,768.22z"/>
<path fill="#CF6F80" d="M366.21,294.37c-13.2-5.13-30.18-22.08-25.94-30c0.942-1.999,1.501-4.156,1.65-6.36
	c0.273-2.992,0.313-6.001,0.12-9c-0.297-4.911-0.888-9.8-1.77-14.64c0,0,41.21,0.93,38.81,7c-0.7,1.78-0.81,4.87-0.62,8.33
	s0.69,7.37,1.21,10.68c0.72,4.54,1.44,8,1.44,8s-2.52,3.53-4,3.72S385.15,301.68,366.21,294.37z"/>
<path opacity="0.1" enable-background="new    " d="M332.48,742.68l-0.31,0.34c-12.32-14.9-27.22,3.67-27.22,3.67l-0.22-0.39
	l0.76-8.44l23.37-6.07l3.31,10.12L332.48,742.68z"/>
<path opacity="0.1" enable-background="new    " d="M423.61,731.79c0,0-9-0.19-13.8,4.05s-28,0.92-27,0
	c0.296-0.456,0.475-0.978,0.52-1.52l3.15-2.53l36.88-1.09C423.5,731.37,423.61,731.79,423.61,731.79z"/>
<path fill="#D8ECEA" d="M347.81,614.78c-0.67,1.657-1.179,3.375-1.52,5.13c-0.834,4.806-1.066,9.697-0.69,14.56
	c0.37,7,0,53.91,0,53.91s-7.91,12.51-12.32,16.92s9,12.33,9,12.33c2,11.4-10.12,24.28-10.12,24.28
	c-12.32-14.9-27.22,3.68-27.22,3.68s-8.1-14-10.12-19s7.91-8.46,11.4-10.49s-0.17-14-0.17-14s-2.95-10.49-6.45-20.06
	s3.86-57.21,3.86-57.21s0.38-8.46,1.29-11.41c0.459-2.129,0.55-4.32,0.27-6.48c-0.06-0.73-0.13-1.34-0.18-1.75s-0.09-0.6-0.09-0.6
	l0.14-0.24l5-9.32C309.89,595.03,350.21,608.91,347.81,614.78z"/>
<path fill="#D8ECEA" d="M423.61,730.69c0,0-9-0.19-13.8,4s-28,0.92-27,0s0.92-7.73,0.92-7.73c-13.61-18.58-2-26.12-2-26.12
	s-6.08-29.25-7.18-40.1c-0.77-7.58-1.72-27.95-2.23-39.58c-0.22-5-0.35-8.44-0.35-8.44l11.12-2.24l1.43-0.29l26.82-5.38
	c0,0,0.74,5,1.24,9.09c0.249,1.746,0.39,3.506,0.42,5.27c-0.18,2,0,8.26,0,8.26l0.91,18.77c-0.595,1.969-0.901,4.013-0.91,6.07
	c0.18,2.39,3.67,36.61,3.67,36.61s6.07,20.42,4,21.89S423.61,730.69,423.61,730.69z"/>
<path opacity="0.1" enable-background="new    " d="M379.08,241.37c-0.7,1.78-0.81,4.87-0.62,8.33
	c-11.264,6.783-25.417,6.519-36.42-0.68c-0.297-4.914-0.888-9.806-1.77-14.65C340.27,234.37,381.48,235.28,379.08,241.37z"/>
<path fill="#CF6F80" d="M395.01,219.27c0.008,3.604-0.559,7.185-1.68,10.61c-5.866,17.966-25.185,27.775-43.151,21.909
	c-13.785-4.501-23.237-17.202-23.589-31.699c0-0.28,0-0.54,0-0.82c-0.323-18.896,14.733-34.477,33.63-34.8
	c18.896-0.323,34.477,14.733,34.8,33.63c0.007,0.39,0.007,0.78,0,1.17L395.01,219.27z"/>
<path opacity="0.1" enable-background="new    " d="M366.21,294.37c-13.2-5.13-30.18-22.08-25.94-30
	c0.942-1.999,1.501-4.156,1.65-6.36l18.07,14.85l11.18,9.17l8.5-21.64c0.72,4.54,1.44,8,1.44,8s-2.52,3.53-4,3.72
	S385.15,301.68,366.21,294.37z"/>
<polygon fill="#D8ECEA" points="412.94,360 397.85,613.5 378.17,614.79 327.21,467.8 335.57,293.29 337.33,256.42 359.99,275.03 
	371.18,284.2 379.93,261.93 396.2,276.11 "/>
<path opacity="0.1" enable-background="new    " d="M347.81,614.78c-0.67,1.657-1.179,3.375-1.52,5.13
	c-14.32-2.211-28.228-6.556-41.26-12.89l-0.27-0.14l0.09-1.61l0.05-0.84l5-9.32C309.9,595.11,350.21,608.91,347.81,614.78z"/>
<path opacity="0.1" enable-background="new    " d="M383.32,619.95c-3.661,0.622-7.353,1.043-11.06,1.26
	c-0.22-5-0.35-8.44-0.35-8.44l11.12-2.24L383.32,619.95z"/>
<path opacity="0.1" enable-background="new    " d="M412.52,613.95c-7.11,1.85-18.09,3.93-27.92,2.63l-0.14-6.34l26.82-5.38
	C411.28,604.86,412.02,609.81,412.52,613.95z"/>
<path opacity="0.1" enable-background="new    " d="M384.42,617.74c-41,7-78.55-13.07-78.55-13.07l0.36-6.8c0,0,0.93-77.09-1.65-83
	s-4.59-35.88-3.13-40.48s-5.33-73.58-5.33-73.58l-1.1-28l-40.26-16.31l18-37.52c2.431-5.26,4.522-10.672,6.26-16.2
	c3.13-9.74,17.66-19.31,17.66-19.31s14.9-9.56,20.79-9.2s13.61-8.46,13.61-8.46c5.7-14.53,10.86-7.95,10.86-7.95
	c0,0.69,0,0-0.28,2.15c-2,15.95,32.34,66.35,32.83,67.24l0,0l3.27,79.66l3.31,100.81L384.42,617.74z"/>
<path fill="#FFFFFF" d="M383.32,617.74c-41,7-78.56-13.07-78.56-13.07l0.37-6.8c0,0,0.93-77.09-1.66-83s-4.59-35.88-3.12-40.48
	s-5.33-73.58-5.33-73.58l-1.11-28l-40.28-16.37l18-37.52c2.426-5.263,4.517-10.673,6.26-16.2c3.12-9.74,17.66-19.31,17.66-19.31
	s14.9-9.56,20.78-9.2s13.61-8.46,13.61-8.46c5.71-14.53,12-7.95,12-7.95c0,0.69-0.6,1-0.28,2.15c4.4,15.47,31.24,66.35,31.73,67.24
	l0,0l3.31,79.66l3.31,100.81L383.32,617.74z"/>
<path opacity="0.1" enable-background="new    " d="M372.27,329.46c-4.41-1.84-27.77-28.51-27.77-28.51v-6.07
	c-0.85-2-5.9-0.78-10,0.62l1.76-36.87l2,1.66C342.64,275.75,371.76,328.57,372.27,329.46z"/>
<path fill="#FFFFFF" d="M373.38,327.25c-4.42-1.84-27.78-28.51-27.78-28.51v-6.07c-0.85-2-5.9-0.78-10,0.62l1.77-36.87l2,1.66
	C343.76,273.54,372.89,326.37,373.38,327.25z"/>
<path opacity="0.1" enable-background="new    " d="M305.87,460.26c0.55,0,28.51-2.94,28.51-2.94s16.93,33.29,15.82,41.39
	s-3.12,15.27-9.93,14s-36.65,1-36.65,1L305.87,460.26z"/>
<path fill="#FFFFFF" d="M304.76,458.05c0.55,0,28.51-2.94,28.51-2.94s16.92,33.3,15.82,41.39s-3.13,15.27-9.93,14s-36.65,1-36.65,1
	L304.76,458.05z"/>
<path fill="#CF6F80" d="M325.83,442.42c0,0,25.66,13.79,26.21,18s-13.06-1.84-16-2.57c-1.935-0.466-3.905-0.774-5.89-0.92
	l-19.61,0.53L325.83,442.42z"/>
<circle opacity="0.1" enable-background="new    " cx="365.11" cy="328.48" r="2.7"/>
<circle fill="#3F3D56" cx="365.11" cy="327.38" r="2.7"/>
<circle opacity="0.1" enable-background="new    " cx="370.08" cy="445.36" r="2.7"/>
<circle fill="#3F3D56" cx="370.08" cy="444.25" r="2.7"/>
<circle opacity="0.1" enable-background="new    " cx="367.8" cy="386.92" r="2.7"/>
<circle fill="#3F3D56" cx="367.8" cy="385.82" r="2.7"/>
<path fill="#FFFFFF" d="M430.04,456.37c0,0,1.84,2.76,0,4.05s0.18,4.41,0.18,4.41s-4.59,2.69-2.57,5.11s0.74,13.35,0.74,13.35
	l-5.52,9.14c0,0,0.33,5.89,0.35,13.85c0,12.42-0.73,29.88-4.77,37.84l0.56,65.31c0,0-19.33,7.06-35.51,4.91l-2.4-104.8
	c0,0,3.5-59.43,4.79-70.83c0.755-5.918,1.062-11.885,0.92-17.85c0,0-0.55-17.84-2.4-26.12c0,0-2-35.87-2.2-45.8
	c-0.09-4.75,0.16-18.61,0.44-31.79c0.31-14.41,0.66-28,0.66-28l-3.65-28.88c0,0,3.65-0.37,4.75,1.1c0.493,0.46,1.029,0.872,1.6,1.23
	l0,0c6.3,4.26,28.56,17.36,28.56,17.36s12.32,4.9,15.27,11.92s5,12,6.43,14s2.21,11.4,2.21,11.4s4.24,17.3,7.55,20.23
	s5.73,21.57,5.73,21.57l-29.25,23c0,0-2.57,38.26-3.12,39.74S430.04,456.37,430.04,456.37z"/>
<path fill="#FFFFFF" d="M431.15,456.37c0,0,1.83,2.76,0,4.05s0.17,4.41,0.17,4.41s-4.56,2.72-2.56,5.14s0.74,13.35,0.74,13.35
	l-5.52,9.14c0,0,0.33,5.89,0.36,13.85c0,12.42-0.73,29.88-4.77,37.84l0.55,65.31c0,0-19.36,7.06-35.52,4.91l-2.39-104.8
	c0,0,3.5-59.43,4.79-70.83c0.756-5.918,1.06-11.886,0.91-17.85c0,0-0.55-17.84-2.39-26.12c0,0-2-35.87-2.21-45.8
	c-0.09-4.75,0.17-18.61,0.44-31.79c0.31-14.41,0.66-28,0.66-28l-4.82-29.27c0,0,4.82,0,5.93,1.49c0.488,0.466,1.024,0.878,1.6,1.23
	l0,0c6.3,4.26,28.57,17.36,28.57,17.36s12.31,4.9,15.26,11.92s5,12,6.44,14s2.2,11.4,2.2,11.4s4.24,17.3,7.55,20.23
	s5.7,21.53,5.7,21.53l-29.25,23c0,0-2.57,38.26-3.13,39.74S431.15,456.37,431.15,456.37z"/>
<path opacity="0.1" enable-background="new    " d="M396.12,297.67l2.64,7.7l-13.9,14c0.31-14.4,0.66-28,0.66-28l-4.82-29.27
	c0,0,4.82,0,5.93,1.49c0.487,0.464,1.023,0.874,1.6,1.22l0,0l11.82,34.1L396.12,297.67z"/>
<path fill="#FFFFFF" d="M395.01,295.46l2.65,7.7l-13.9,14c0.31-14.41,0.66-28,0.66-28l-4.83-29.27c0,0,4.83,0,5.93,1.49
	c0.49,0.463,1.027,0.875,1.6,1.23l0,0l11.83,34.09L395.01,295.46z"/>
<path opacity="0.1" enable-background="new    " d="M395.01,219.27c0.008,3.604-0.559,7.185-1.68,10.61
	c-0.382,0.06-0.771-0.038-1.08-0.27c-0.26-9-4.69-17.45-10.14-24.64c-1.53-2.171-3.385-4.093-5.5-5.7
	c-2.138-1.606-4.798-2.358-7.46-2.11c-3,0.41-5.65,2.45-8.68,2.71c-4,0.33-7.58-2.44-11.55-2.58c-3.265,0.031-6.358,1.467-8.49,3.94
	c-2.086,2.467-3.635,5.342-4.55,8.44c-1.572,4.698-2.429,9.607-2.54,14.56c-0.05,2.8-0.32,6.31-2.92,7.33
	c0.396-4.163-0.972-8.302-3.77-11.41l-0.06-0.06c0-0.28,0-0.54,0-0.82c-0.323-18.896,14.733-34.477,33.63-34.8
	c18.896-0.323,34.477,14.733,34.8,33.63c0.007,0.39,0.007,0.78,0,1.17L395.01,219.27z"/>
<path fill="#512E4E" d="M374.97,164.94c-5.196-2.444-11.107-2.907-16.62-1.3c-2.77,0.82-5.38,2.15-8.19,2.82
	c-6,1.45-13-0.12-18.15,3.39c-2.86,2-4.58,5.16-6.18,8.23l-4,7.62c-2.18,4.17-4.38,8.41-5.29,13c-0.91,4.59-0.36,9.73,2.55,13.42
	c2.12,2.69,5.25,4.38,7.55,6.91c2.785,3.111,4.148,7.242,3.76,11.4c2.61-1,2.86-4.52,2.92-7.32c0.111-4.953,0.968-9.862,2.54-14.56
	c0.913-3.099,2.462-5.974,4.55-8.44c2.133-2.471,5.226-3.906,8.49-3.94c4,0.14,7.59,2.9,11.55,2.57c3-0.25,5.66-2.3,8.68-2.7
	c2.663-0.252,5.324,0.501,7.46,2.11c2.114,1.604,3.966,3.527,5.49,5.7c5.46,7.19,9.89,15.62,10.15,24.64
	c1.13,0.83,2.76-0.25,3.32-1.53s0.58-2.78,1.29-4c0.82-1.41,2.39-2.16,3.62-3.22c3.12-2.69,3.9-7.22,3.78-11.33
	s-0.92-8.28-0.14-12.32c0.47-2.48,1.53-4.8,2.11-7.25s0.65-5.2-0.72-7.31c-2-3.1-6.21-3.71-9.88-4c-4.17-0.36-7.9,0.1-10.56-3.41
	c-1.249-1.832-2.654-3.551-4.2-5.14C380.32,168.46,374.97,165.16,374.97,164.94z"/>
<path opacity="0.1" enable-background="new    " d="M266.28,375.82l-10.45-19.32l-3.31,29.81c0,0,1.84,13.24,1.47,15.27
	s7.54,20.23,7.54,20.23s26.13,46.54,36.8,48.94l36.05-25.76l-9.56-12.14c0,0-3.31-1.29-4.14,0c0,0-17.75-30.54-19.59-32.75
	s-1.48-6.62-1.48-6.62s-2.76-2.94-1.84-5.7s-5.33-12.33-5.33-12.33l5.7-5.33L266.28,375.82z"/>
<path fill="#FFFFFF" d="M256.38,354.3l-2.76,2.2l-3.31,29.81c0,0,1.84,13.24,1.47,15.27s7.55,20.23,7.55,20.23
	s26.12,46.54,36.79,48.94l36.06-25.76l-9.57-12.14c0,0-3.31-1.29-4.14,0c0,0-17.75-30.54-19.59-32.75s-1.47-6.62-1.47-6.62
	s-2.76-2.94-1.84-5.7s-5.34-12.33-5.34-12.33l5.7-5.33L256.38,354.3z"/>
<path opacity="0.1" enable-background="new    " d="M427.65,471.08c2,2.43,0.74,13.34,0.74,13.34l-5.52,9.14
	c0,0,0.33,5.9,0.35,13.85l-9.28,2.9c-2.905,0.907-5.995-0.712-6.902-3.617c-0.183-0.586-0.267-1.199-0.248-1.813l1.6-51.61
	l21.65,8.28c-1.84,1.28,0.18,4.42,0.18,4.42S425.63,468.65,427.65,471.08z"/>
<path fill="#FFFFFF" d="M428.76,469.97c2,2.43,0.74,13.35,0.74,13.35l-5.52,9.14c0,0,0.33,5.89,0.36,13.85l-9.45,2.95
	c-2.848,0.885-5.874-0.706-6.759-3.554c-0.177-0.571-0.259-1.168-0.241-1.766l1.61-51.77l21.66,8.28c-1.85,1.28,0.17,4.41,0.17,4.41
	S426.76,467.55,428.76,469.97z"/>
<path fill="#CF6F80" d="M435.93,445.37c0,0-1.47,9.39-5.15,9.94s-5.33,15.19-9,14.67s-1.24-13.61-1.11-16.15s-4-13.06-0.91-15.45
	s12.87,0,12.87,0L435.93,445.37z"/>
<path opacity="0.1" enable-background="new    " d="M443.76,373.06l6.94-14c0,0,2.76,10.67,2.76,16.37s3.86,6.26,3.86,6.26
	s4.23,5,2,8.64s-3.13,12.7-3.13,12.7s0.73,17.29-2.58,19.68s-4,8.1-4,8.1s-6.08,10.85-5.89,13.43s-8.46,20.05-8.46,20.05
	s4.23-21.71-20.42-31.09c0,0-0.19-7.37,1.65-9.39s4.71-2.94,2.91-13.15s-0.52-22.41-0.52-24.86s5.52-17.73,5.52-17.73L443.76,373.06
	z"/>
<path fill="#FFFFFF" d="M446.76,357.06l6.06,2c0,0,2.77,10.67,2.77,16.37s3.86,6.26,3.86,6.26s4.23,5,2,8.64s-3.12,12.7-3.12,12.7
	s0.73,17.29-2.58,19.68s-4.05,8.1-4.05,8.1s-6.07,10.85-5.88,13.43s-8.47,20.05-8.47,20.05s4.24-21.71-20.42-31.09
	c0,0-0.18-7.37,1.66-9.39s4.71-2.94,2.91-13.15s-0.52-22.41-0.52-24.86s5.52-17.73,5.52-17.73L446.76,357.06z"/>
<path opacity="0.1" enable-background="new    " d="M312.91,719.93c0,0,9.66-6.07,16-1.66S312.91,719.93,312.91,719.93z"/>
<path opacity="0.1" enable-background="new    " d="M387.97,701.16c0,0,8.55-1.1,15.73,6.63S387.97,701.16,387.97,701.16z"/>
<g opacity="0.1">
	<path d="M400.48,217.55c-1.23,1.06-2.81,1.82-3.63,3.23c-0.7,1.21-0.72,2.7-1.28,4s-2.19,2.36-3.32,1.54
		c-0.26-9-4.7-17.45-10.15-24.65c-1.524-2.173-3.376-4.096-5.49-5.7c-2.14-1.609-4.804-2.362-7.47-2.11c-3,0.41-5.64,2.45-8.67,2.7
		c-4,0.34-7.59-2.43-11.56-2.57c-3.264,0.032-6.355,1.472-8.48,3.95c-2.088,2.462-3.637,5.334-4.55,8.43
		c-1.571,4.699-2.428,9.607-2.54,14.56c-0.06,2.79-0.32,6.27-2.9,7.31c0.06,0.739,0.06,1.481,0,2.22c2.6-1,2.86-4.52,2.92-7.32
		c0.111-4.953,0.968-9.862,2.54-14.56c0.913-3.099,2.462-5.974,4.55-8.44c2.129-2.471,5.219-3.906,8.48-3.94
		c4,0.14,7.6,2.9,11.56,2.57c3-0.25,5.66-2.3,8.67-2.7c2.666-0.252,5.33,0.501,7.47,2.11c2.114,1.604,3.966,3.527,5.49,5.7
		c5.45,7.19,9.89,15.62,10.15,24.64c1.13,0.83,2.76-0.25,3.32-1.53s0.58-2.78,1.28-4c0.82-1.41,2.4-2.16,3.63-3.22
		c3.12-2.69,3.9-7.22,3.78-11.33c0-0.13,0-0.26,0-0.38C404.09,211.62,403.14,215.25,400.48,217.55z"/>
	<path d="M326.66,216.84c-2.3-2.53-5.44-4.22-7.55-6.9c-1.777-2.372-2.791-5.228-2.91-8.19c-0.315,3.701,0.719,7.391,2.91,10.39
		c2.11,2.69,5.25,4.38,7.55,6.91c2.208,2.475,3.534,5.612,3.77,8.92C330.739,223.902,329.378,219.883,326.66,216.84z"/>
	<path d="M406.23,186.65c-0.59,2.45-1.64,4.78-2.12,7.25c-0.284,1.65-0.388,3.327-0.31,5c0.033-0.953,0.137-1.902,0.31-2.84
		c0.48-2.48,1.53-4.8,2.12-7.25c0.344-1.351,0.455-2.751,0.33-4.14C406.498,185.337,406.388,185.999,406.23,186.65z"/>
</g>
<ellipse opacity="0.3" fill="#FFFFFF" cx="132.73" cy="744.94" rx="97.44" ry="15.65"/>
<rect x="129.6" y="445.14" fill="#535461" width="6.27" height="141.17"/>
<path fill="#3F3D56" d="M175.27,585.88l-0.39,6.36l-0.56,9l-0.23,3.74l-0.55,9l-0.24,3.74l-0.56,9l-6.32,102.07
	c-0.57,9.115-8.127,16.217-17.26,16.22H116.3c-9.131-0.004-16.685-7.107-17.25-16.22l-6.29-102.14l-0.56-9l-0.23-3.74l-0.56-9
	l-0.23-3.74l-0.56-9l-0.4-6.36c-0.282-4.963,3.513-9.214,8.476-9.496c0.175-0.01,0.35-0.015,0.524-0.014h67.21
	c4.937,0.043,8.905,4.079,8.863,9.017C175.291,585.505,175.283,585.693,175.27,585.88z"/>
<polygon fill="#9D9CB5" points="174.88,592.24 174.32,601.21 91.14,601.21 90.58,592.24 "/>
<polygon fill="#9D9CB5" points="174.09,604.95 173.54,613.93 91.93,613.93 91.37,604.95 "/>
<polygon fill="#9D9CB5" points="173.3,617.68 172.75,626.65 92.72,626.65 92.16,617.68 "/>
<path fill="#D8ECEA" d="M81.01,498.05c36.51,26.42,51.75,67.74,51.75,67.74s-44-1.51-80.52-27.93S0.51,470.13,0.51,470.13
	S44.49,471.63,81.01,498.05z"/>
<path fill="none" stroke="#535461" stroke-width="2" stroke-miterlimit="10" d="M0.48,470.13c0,0,45.68,25.35,60.33,46.34
	s71.95,49.32,71.95,49.32"/>
<path fill="#D8ECEA" d="M104.58,444.83c19.87,14.37,28.18,36.86,28.18,36.86s-23.95-0.82-43.83-15.19s-28.17-36.87-28.17-36.87
	S84.7,430.45,104.58,444.83z"/>
<path fill="none" stroke="#535461" stroke-width="2" stroke-miterlimit="10" d="M60.76,429.63c0,0,24.86,13.8,32.83,25.22
	s39.17,26.84,39.17,26.84"/>
<path fill="#D8ECEA" d="M161.61,480.55c-22.83,25.09-27.66,57.88-27.66,57.88s32.19-7.9,55-33s27.66-57.88,27.66-57.88
	S184.44,455.46,161.61,480.55z"/>
<path fill="none" stroke="#535461" stroke-width="2" stroke-miterlimit="10" d="M216.63,447.56c0,0-29.74,25.72-37.3,43.44
	s-45.38,47.43-45.38,47.43"/>
<linearGradient id="SVGID_2_" gradientUnits="userSpaceOnUse" x1="1146.705" y1="-337.979" x2="1146.7051" y2="224.0482" gradientTransform="matrix(1 0 0 -1 -253.24 429.11)">
	<stop  offset="0" style="stop-color:#808080;stop-opacity:0.25"/>
	<stop  offset="0.54" style="stop-color:#808080;stop-opacity:0.12"/>
	<stop  offset="1" style="stop-color:#808080;stop-opacity:0.1"/>
</linearGradient>
<path fill="url(#SVGID_2_)" d="M999.67,471.72c0,0-16.51-82.14-10.19-92.36c0,0,0.23-9.5-0.15-21.61c0-0.46,0-0.92,0-1.39
	c1.112,0.741,2.271,1.409,3.47,2c5.823,2.992,12.508,3.855,18.9,2.44l-5-5.57c-1.2-1.33-2.45-2.77-2.71-4.53s0.46-3.33,1.08-4.9
	c4.75-12,5-27.09-4.15-36.25c-7.73-7.7-9.61-17.64-18-24.67c-6.13-5.15-9.5-12.7-12.68-20c-2.69-6.17-5.4-12.39-6.94-18.93
	c-1.2-5.11-1.68-10.4-3.33-15.39s-4.74-9.84-9.57-12.07c-1.72-0.79-3.63-1.24-5.2-2.29c-2.06-1.39-3.3-3.65-4.79-5.63
	c-7.57-10-32.92-4.11-44.92-0.05c-3.262,1.022-6.283,2.696-8.88,4.92l0.11-0.18c0.09-0.15,0.2-0.3,0.3-0.45
	c-1.313,1.062-2.448,2.328-3.36,3.75c-1.75,2.77-2.48,6-3.94,9c-1.76,3.55-11.55,13.46-7.34,17.45c0.295,0.268,0.633,0.484,1,0.64
	c1.58,0.658,3.321,0.832,5,0.5l-0.18,0.43c-1.438,3.52-2.175,7.287-2.17,11.09c0,16.43,13.55,29.75,30.28,29.75
	c3.145,0.003,6.272-0.479,9.27-1.43c0.07,0.38,0.13,0.76,0.2,1.14c0,0.15,0.05,0.3,0.07,0.45l0,0l-0.53,0.74
	c-0.027-0.046-0.057-0.089-0.09-0.13l-15.7,21.94c-2.4,1.69-16.22,11.69-17,19.19c-0.82,8.21-1.64,17.82-1.64,17.82l-0.11,2.06
	c-1.389,1.16-3.216,1.654-5,1.35c-4.9-0.8-4.9,18-4.9,18s-3.26,3-5.5,0.4s-8.16,6.21-8.16,6.21l-37.1,1.6l0,0l-0.85,0.05l-2-6.19
	c-0.448-1.359-1.906-2.104-3.27-1.67c-0.155,0.051-0.305,0.115-0.45,0.19l-0.14,0.08l-0.26,0.18l-0.13,0.12
	c-0.072,0.065-0.138,0.135-0.2,0.21l-0.12,0.14l-0.06,0.06l0,0c-0.468,0.647-0.602,1.478-0.36,2.24l1.72,5.31
	c-7.16,1.44-14.48,5.5-8.51,16.68l-30.26-5.59l9.79,8.22l50.54,10.43c-0.67,1.2-0.23,2.94,1.86,5.39c9,10.57,25.4,13.44,32,14.18
	c1.743,3.899,3.92,7.589,6.49,11l-0.57,10.53c0,0-16.71,80.26-19.77,84.33c1.545-1.75,2.959-3.612,4.23-5.57
	c-4.85,16.49-11.63,39.06-13.41,42.44c-2.86,5.4-5.51,27.25-2.25,28.65c1,0.43,3.86,0.22,7.94-0.09v1.81l-0.18,68.59
	c0,0,0.82,42.07-1.43,46.08s-2.85,12.42-2.85,12.42s-9,16.59-16.13,23.26c-0.049,0.052-0.102,0.099-0.16,0.14l-0.22-1.56
	c0,0-8.57,10.82-27.53,10.21c0,0-11.41,7.42,5.51,7.82s38.53-0.6,38.53-0.6s15.09-23,27.73-20v17.43h3.87v-17.71
	c3.627-2.388,6.117-6.157,6.89-10.43c0.674-4.434-1.045-8.895-4.52-11.73c-1.551-1.402-2.447-3.389-2.47-5.48l-0.14,0.12
	c0-0.35-0.09-0.71-0.13-1.08c-1.11-9-2.5-27.57,2.41-41.31c6.73-18.84,8.77-45.08,3.87-60.7c-1.581-4.993-2.88-10.071-3.89-15.21
	c-0.12-0.65-0.23-1.27-0.33-1.85c3.349,0.453,6.666,1.121,9.93,2c11.35,3.13,36.18,3.71,57.38,3.54c0.05,0.58,0.11,1.19,0.18,1.8
	c0.378,4.24,1.168,8.433,2.36,12.52c2.66,8,3.88,43.27,3.88,43.27s3.43,29,1.56,40.8c-1,6.56-2,13.15-2.57,19.77v0.13
	c0,0-5.62,16-9.73,24.69c-0.1,0.22-0.21,0.44-0.31,0.65c-1.096,0.1-2.174,0.338-3.21,0.71c0,0-5.51,11-11,12.82
	s-3.67,7.81,8.76,5.61s31.2-4,31.2-4l0.81-11.22l3.82-4.78l-1,11.19l4.07-0.8l-0.54-13.61l6.25-7.82c0,0,7.55-6.72-3.67-19.94v0.29
	c-0.12-0.19-0.23-0.39-0.36-0.58v-0.06c-1.86-2.88-3.34-8.25-0.63-17.78c4.9-17.22,7.75-32.85,7.75-32.85s10.94-41.87-2.21-61.68
	h0.58c-1.348-2.788-2.3-5.749-2.83-8.8c-0.067-0.36-0.127-0.73-0.18-1.11c9.73-0.56,19.28-2.32,27.07-6.12
	C1008.24,586.9,1003.55,487.54,999.67,471.72z M876.14,402.42v0.2l-2,0.1L876.14,402.42z M869.28,403.37
	c-0.329,0.073-0.637,0.22-0.9,0.43c-0.86,1.217-1.4,2.63-1.57,4.11l-3.12-0.7c0,0-2.19-0.47-5.34-1l-1.49-1.5
	C860.96,404.37,865.22,403.87,869.28,403.37z"/>
<polygon fill="#1D2366" points="972.51,743.53 971.32,757.7 975.31,756.9 974.71,741.53 "/>
<path fill="#FFB0B1" d="M881.48,676.25c-4.81,13.7-3.45,32.19-2.37,41.17c0.4,3.32,0.77,5.34,0.77,5.34s-7.19,16.38-7.79,17
	s-21.16,13.17-21.16,13.17l-14.37,8.39c0,0-14.58-6.39-7.59-8.59c1.428-0.573,2.715-1.45,3.77-2.57c7-6.65,15.79-23.18,15.79-23.18
	s0.6-8.39,2.8-12.38s1.4-45.92,1.4-45.92l0.17-68.35v-8.91l27.35,0.2c0.172,3.025,0.567,6.033,1.18,9
	c0.982,5.121,2.254,10.183,3.81,15.16C890.06,631.37,888.06,657.48,881.48,676.25z"/>
<path opacity="0.1" enable-background="new    " d="M879.88,722.76c0,0-7.19,16.38-7.79,17s-21.16,13.17-21.16,13.17l-14.37,8.39
	c0,0-14.58-6.39-7.59-8.59c1.428-0.573,2.715-1.45,3.77-2.57l0.62,4.37l4.79-0.2l41-36.89
	C879.51,720.74,879.88,722.76,879.88,722.76z"/>
<path fill="#1D2366" d="M879.38,718.37l-41.23,37.14l-4.79,0.2l-1-7c0,0-8.38,10.78-27,10.18c0,0-11.18,7.39,5.39,7.79
	s37.73-0.6,37.73-0.6s14.78-23,27.15-20v17.37h3.8v-17.53c3.57-2.403,6.005-6.16,6.74-10.4c0.669-4.396-1.002-8.823-4.41-11.68
	C880.247,722.422,879.386,720.443,879.38,718.37z"/>
<path fill="#FFB0B1" d="M976.31,697.61c-2.66,9.5-1.21,14.85,0.61,17.72v0.06c2.334,3.544,3.958,7.507,4.78,11.67l0.16,0.9
	l-18.76,27.35l-10.18,4c0,0-16.37-5.59-13.38-7.19c0.75-0.39,1.92-2.47,3.26-5.34c4-8.65,9.52-24.61,9.52-24.61v-0.13
	c0.58-6.59,1.5-13.16,2.52-19.7c1.83-11.77-1.53-40.66-1.53-40.66s-1.2-35.13-3.8-43.12c-1.174-4.062-1.954-8.228-2.33-12.44
	c-0.54-5-0.66-9.12-0.66-9.12s10.78-15,30.54,1.2c1.58,1.292,2.97,2.8,4.13,4.48c13.65,19.42,2.66,62.2,2.66,62.2
	S981.1,680.44,976.31,697.61z"/>
<path opacity="0.1" enable-background="new    " d="M981.89,727.96l-18.76,27.35l-10.18,4c0,0-16.37-5.59-13.38-7.19
	c0.75-0.39,1.92-2.47,3.26-5.34c6.93-0.06,10.52,6.54,10.52,6.54l8.78-1.4c0,0,11.58-22.76,14.18-24.15s0.4-10.39,0.4-10.39v-2.29
	c0.07,0.08,0.13,0.17,0.21,0.25v0.06c2.334,3.544,3.958,7.507,4.78,11.67L981.89,727.96z"/>
<path fill="#1D2366" d="M953.95,753.91c0,0-5-9.18-14.58-5.79c0,0-5.39,11-10.78,12.78s-3.59,7.78,8.59,5.59s30.54-4,30.54-4
	l0.8-11.19l12.38-15.77c0,0,7.38-6.69-3.6-19.86v2.29c0,0,2.2,9-0.4,10.39s-14.14,24.16-14.14,24.16L953.95,753.91z"/>
<path opacity="0.1" enable-background="new    " d="M880.28,591.6c0.172,3.025,0.567,6.033,1.18,9
	c-11.26-1.65-21.71-0.83-28.56-0.29v-8.91L880.28,591.6z"/>
<path opacity="0.1" enable-background="new    " d="M982.3,605.17c0,0-16,0.78-35.08,0.94c-0.54-5-0.66-9.12-0.66-9.12
	s10.78-15,30.54,1.2c1.58,1.292,2.97,2.8,4.13,4.48C981.54,603.523,981.897,604.357,982.3,605.17z"/>
<path fill="#1D2366" d="M982.3,603.37c0,0-70.08,3.39-91.44-2.6s-42.53-0.8-45.72-2.19s-0.6-23.16,2.2-28.55s18.16-59.9,18.16-59.9
	l14.78-77.06l15.57-4.29l1.1-0.31l27.13-7.48l19.88-5.49c0,0,39.53,154.33,36.14,165.71c-1.231,4.358-1.43,8.942-0.58,13.39
	C980.038,597.638,980.974,600.589,982.3,603.37z"/>
<path fill="#C7DAF5" d="M828.76,380.37c0,0-14,15-3.4,23.36s17.57,0.8,17.57,0.8L828.76,380.37z"/>
<path opacity="0.1" enable-background="new    " d="M828.76,380.37c0,0-14,15-3.4,23.36s17.57,0.8,17.57,0.8L828.76,380.37z"/>
<path fill="#FFB0B1" d="M941.87,281.75c0,0-1.64,1.56-4.11,3.86c-3.52,3.29-8.73,8.1-13.35,12.13c-6.4,5.57-11.68,9.66-9.79,6.17
	s1.53-9.57,0.59-15.26c-0.07-0.38-0.13-0.76-0.2-1.13c-0.778-4.179-1.81-8.306-3.09-12.36c0,0,10.34-13.36,16.06-18.63
	c2.13-2,3.62-2.82,3.71-1.43c0.1,1.87,1.5,6,3.24,10.38c0.05,0.14,0.1,0.27,0.16,0.41c1.16,3,2.47,6.08,3.62,8.74
	C940.47,278.71,941.87,281.75,941.87,281.75z"/>
<path opacity="0.1" enable-background="new    " d="M935.09,265.89c-1.979,10.645-9.598,19.367-19.88,22.76
	c-0.795-4.565-1.894-9.072-3.29-13.49c0,0,19.47-25.15,19.77-20.06C931.76,257.03,933.28,261.31,935.09,265.89z"/>
<path opacity="0.1" enable-background="new    " d="M913.27,295.37l2.52-3.55c0,0,1.67,10.18,7.81,5.69s6.44,33.79,6.44,33.79
	l-6.59,98.53l-47.62-2.85l1.35-47.61l5.39-24l13.33-34.89l7.93-11.53L913.27,295.37z"/>
<path fill="#1D2366" d="M930.04,331.91l-6,89.09l-0.63,9.44l-26.55-1.59l-1-0.06l-20-1.2l1.35-47.62l5.39-24l13.33-34.89l7.93-11.53
	l9.44-13.63l2.52-3.54c0,0,1.67,10.18,7.81,5.69l0.13-0.09l0,0C929.76,294.18,930.04,331.91,930.04,331.91z"/>
<path fill="#FFFFFF" d="M883.27,347.63c0,0-2.39,5-7.19,4.19s-4.79,18-4.79,18s-3.19,3-5.39,0.4s-8,6.19-8,6.19l-36.34,1.6
	c0,0,16.17,7.39,13,29.75c0,0,54.9-3.4,56.7-8.59S883.27,347.63,883.27,347.63z"/>
<path opacity="0.03" enable-background="new    " d="M883.27,347.63c0,0-2.39,5-7.19,4.19s-4.79,18-4.79,18s-3.19,3-5.39,0.4
	s-8,6.19-8,6.19l-36.34,1.6c0,0,16.17,7.39,13,29.75c0,0,54.9-3.4,56.7-8.59S883.27,347.63,883.27,347.63z"/>
<polygon fill="#FFFFFF" points="777.66,389.76 787.24,397.94 866.1,414.51 856.32,404.53 "/>
<path fill="#FFFFFF" d="M913.42,298.52c-1.31,2-5.06,12.24-8.19,21.18c-2.61,7.45-4.79,14-4.79,14s-5.09,33.14-7.69,39.13
	s-1.19,29.35-1.19,29.35l-9.69,57.69c0,0-4.39,29.75-11.17,47.52c-6.69,17.49-14.14,25.69-14.37,25.95c3-4.06,19.35-84,19.35-84
	l5.4-100.82c0,0,0.79-9.58,1.59-17.77s17-19.37,17-19.37l15.62-22.21C916.86,291.27,915.81,294.93,913.42,298.52z"/>
<path fill="#FFB0B1" d="M872.69,428.09c0,0-23-1-34.14-14.38s25.75-5.34,25.75-5.34l9.59,2.2L872.69,428.09z"/>
<path opacity="0.1" enable-background="new    " d="M980.1,581.22c-1.231,4.358-1.43,8.942-0.58,13.39c-25.09,1.78-51.93-5-51.93-5
	c-5,4.6-18.17,11.38-18.17,11.38l-7.18-89c-4.59-12-6.39-74.87-6.39-74.87s0.41-3.29,1-8.22c0-0.12,0-0.25,0.05-0.37
	c1.79-13.77,5.34-39.62,7.08-43.11c2.4-4.8-7.38-17.57-7.38-17.57l4.45-37.95l0.54-4.58c9.38-4.19,16.57-17.57,16.57-17.57
	l5.52-9.67l0,0c6-3.85,6.31,33.88,6.31,33.88l-6,89.09l19.88-5.49C943.87,415.56,983.49,569.84,980.1,581.22z"/>
<path fill="#FFFFFF" d="M1005.85,587.37c-27.35,13.58-77.06,1-77.06,1c-5,4.6-18.17,11.38-18.17,11.38l-7.19-89
	c-4.58-12-6.38-74.87-6.38-74.87s5.78-46.91,8.18-51.7c0.7-1.4,0.36-3.48-0.47-5.72c-4.081-10.662-5.581-22.137-4.38-33.49
	l1.92-16.31l0.53-4.57c9.39-4.2,16.58-17.58,16.58-17.58l5-8.76l9.2-16.14l4.36-7.64l0.74,0.67l5.65,5.12c0,0,2.4,2,6,5
	c7.83,6.6,21.36,18.22,28.34,25.33c6.14,6.26,8.08,30.61,8.64,48.94c0.37,12.07,0.15,21.53,0.15,21.53c-6.19,10.19,10,92,10,92
	C1001.26,488.37,1005.85,587.37,1005.85,587.37z"/>
<path opacity="0.03" enable-background="new    " d="M953.35,306.31c0,0-18.77,35.73-16.59,49.31s8.38,28.95,5.39,32.54
	c-2.083,2.757-5.335,4.381-8.79,4.39c-3,0.2-11,5.79-11,6.39s-7.39,0.6-14,3.4s-16.37,4.39-16.37,4.39s-19-0.6-20.77,1.2
	s-3.59,12.57,0.2,21.16s8,15,11.18,16.17s23.36-5.59,39.73-7.19s34.14-14.57,34.14-14.57s19.57-7,23-18.77s-4.19-76.46-4.19-76.46
	S969.52,298.12,953.35,306.31z"/>
<path opacity="0.03" enable-background="new    " d="M950.95,303.31c0,0-18.77,35.74-16.57,49.31s8.38,28.95,5.38,32.55
	c-2.075,2.76-5.326,4.386-8.78,4.39c-3,0.2-11,5.79-11,6.39s-7.39,0.6-14,3.39s-16.37,4.39-16.37,4.39s-19-0.6-20.76,1.2
	s-3.6,12.58,0.2,21.16s8,15,11.18,16.17s23.36-5.59,39.73-7.18s34.14-14.58,34.14-14.58s19.56-7,22.95-18.76
	c3.39-11.76-4.19-76.47-4.19-76.47S967.12,295.13,950.95,303.31z"/>
<path fill="#FFFFFF" d="M952.76,304.51c0,0-18.77,35.74-16.57,49.31s8.38,28.95,5.39,32.54c-2.075,2.767-5.331,4.397-8.79,4.4
	c-3,0.2-11,5.79-11,6.38s-7.38,0.6-14,3.4s-16.37,4.39-16.37,4.39s-19-0.6-20.77,1.2s-3.59,12.58,0.2,21.16s8,15,11.18,16.17
	s23.36-5.59,39.73-7.19s34.14-14.57,34.14-14.57s19.57-7,23-18.77c3.43-11.77-4.14-76.46-4.14-76.46S968.92,296.37,952.76,304.51z"
	/>
<path opacity="0.1" enable-background="new    " d="M952.35,400.37c0,0-15-3-9.78,2s5.19,9.38,11.58,9.18
	S952.35,400.37,952.35,400.37z"/>
<path opacity="0.1" enable-background="new    " d="M977.7,507.95c0,0-6.78,4.59,6.19,15.17S977.7,507.95,977.7,507.95z"/>
<path opacity="0.1" enable-background="new    " d="M964.76,545.68c0,0.6-2.4,22,6.58,27.35S964.76,545.68,964.76,545.68z"/>
<path fill="#FFB0B1" d="M822.18,377.96c-7.24,0.25-22.88,2.46-14.77,17.59c7.17,13.39,19.22,4.44,26-2.35
	C831.756,386.869,827.737,381.415,822.18,377.96z"/>
<path fill="#FFB0B1" d="M834.15,392.37L834.15,392.37z"/>
<path fill="#FFB0B1" d="M833.5,393.08l0.3-0.31L833.5,393.08z"/>
<path opacity="0.1" enable-background="new    " d="M950.36,285.37c-7.68,5.25-14.12,9.68-15.38,10.6
	c-3.44,2.55-10,17.52-14.23,25.16c-3.37,6.15-14.32,7.73-18.45,8.12l0.53-4.57c9.39-4.2,16.58-17.58,16.58-17.58l18.56-32.54
	l6.39,5.81C944.36,280.37,946.76,282.37,950.36,285.37z"/>
<path fill="#DCE7FF" d="M950.36,284.77c-7.68,5.25-14.12,9.68-15.38,10.61c-3.44,2.54-10,17.51-14.23,25.15
	c-3.37,6.15-14.32,7.73-18.45,8.12l0.53-4.57c9.39-4.2,16.58-17.58,16.58-17.58l18.56-32.54l6.39,5.79
	C944.36,279.75,946.76,281.73,950.36,284.77z"/>
<path fill="#FFB0B1" d="M935.58,259.29c0.004,6.003-1.816,11.865-5.22,16.81c-9.281,13.498-27.747,16.916-41.245,7.635
	c-13.498-9.281-16.916-27.747-7.635-41.245s27.747-16.916,41.245-7.635C930.771,240.388,935.578,249.526,935.58,259.29z"/>
<path opacity="0.1" enable-background="new    " d="M987.34,359.04c-4.061-2.498-7.368-6.051-9.57-10.28
	c-1.67-3.3-2.78-7.11-5.63-9.45c-2.57-2.1-6-2.61-9.2-3.55c-10.52-3.11-19.34-12.71-19.67-23.67c-0.16-5.16,1.45-10.31,0.72-15.42
	c-0.415-2.892-1.565-5.629-3.34-7.95c-0.881-1.11-1.848-2.15-2.89-3.11c-1.4-1.32-2.87-2.6-4.15-4
	c-0.806-0.867-1.511-1.823-2.1-2.85c-0.476-0.84-0.861-1.729-1.15-2.65c-2-6.12-0.18-13.38-2.38-19.57l-0.12-0.34
	c-0.83-2.2-2.52-4.4-4.87-4.57s-4.36,1.78-6.6,2.65c-4.69,1.82-9.75-1.28-13.66-4.44s-8.32-6.77-13.29-6.07
	c-3.29,0.47-5.89,2.71-8.92,3.87c-0.684,0.265-1.39,0.469-2.11,0.61c6.094-15.199,23.356-22.579,38.555-16.485
	c11.25,4.511,18.621,15.415,18.615,27.535c0.003,2.081-0.215,4.156-0.65,6.19c0.05,0.14,0.1,0.27,0.16,0.41
	c1.16,3,2.47,6.08,3.62,8.74l5.65,5.12c0,0,2.4,2,6,5c7.83,6.6,21.36,18.22,28.34,25.33C984.84,316.37,986.76,340.71,987.34,359.04z
	"/>
<path fill="#591D4B" d="M880.17,229.37c1.43-2.91,2.14-6.17,3.85-8.93c2.51-4,6.89-6.56,11.39-8.11c11.75-4.05,36.58-9.93,44,0
	c1.46,2,2.67,4.22,4.69,5.6c1.54,1.05,3.4,1.5,5.09,2.29c4.73,2.22,7.75,7.06,9.36,12s2.09,10.24,3.27,15.33
	c1.51,6.53,4.16,12.72,6.8,18.87c3.11,7.26,6.41,14.79,12.41,19.92c8.19,7,10,16.91,17.6,24.59c9,9.12,8.71,24.17,4.07,36.12
	c-0.61,1.57-1.3,3.21-1.06,4.88s1.48,3.19,2.65,4.52l4.92,5.55c-11.64,2.81-24.81-3.27-30.23-13.94c-1.67-3.3-2.78-7.1-5.64-9.45
	c-2.56-2.1-6-2.6-9.19-3.54c-10.52-3.12-19.34-12.73-19.67-23.69c-0.16-5.15,1.45-10.3,0.72-15.4c-0.406-2.911-1.56-5.668-3.35-8
	c-2.75-3.59-6.9-6-9.14-10c-3.79-6.69-0.91-15.38-3.64-22.56c-0.84-2.2-2.52-4.4-4.87-4.57s-4.36,1.78-6.61,2.65
	c-4.68,1.82-9.74-1.27-13.65-4.44s-8.32-6.77-13.3-6.06c-3.29,0.46-5.88,2.7-8.91,3.87c-2.24,0.86-6.78,1.63-8.74-0.26
	C868.85,242.8,878.44,232.93,880.17,229.37z"/>
<path opacity="0.1" enable-background="new    " d="M981.76,344.76c-1.68-3.3-2.78-7.1-5.64-9.44c-2.56-2.1-6-2.61-9.2-3.55
	c-10.51-3.11-19.33-12.72-19.67-23.68c-0.16-5.15,1.45-10.31,0.73-15.41c-0.419-2.893-1.572-5.63-3.35-7.95
	c-2.76-3.59-6.91-6-9.14-10c-3.79-6.68-0.91-15.37-3.65-22.56c-0.83-2.19-2.52-4.39-4.86-4.57s-4.37,1.79-6.61,2.66
	c-4.68,1.82-9.75-1.28-13.65-4.44s-8.33-6.77-13.3-6.07c-3.29,0.47-5.89,2.71-8.91,3.87c-2.24,0.86-6.79,1.64-8.75-0.25
	c-4.12-4,5.47-13.85,7.19-17.39c1.43-2.92,2.14-6.17,3.86-8.93c0.09-0.15,0.19-0.3,0.29-0.45c-1.287,1.066-2.397,2.328-3.29,3.74
	c-1.71,2.76-2.42,6-3.85,8.93c-1.73,3.54-11.32,13.42-7.19,17.39c2,1.9,6.5,1.12,8.74,0.26c3-1.17,5.62-3.41,8.91-3.87
	c5-0.71,9.4,2.9,13.3,6.06s9,6.26,13.66,4.44c2.24-0.87,4.2-2.83,6.6-2.65s4,2.37,4.87,4.57c2.73,7.18-0.15,15.87,3.64,22.56
	c2.24,3.93,6.39,6.39,9.14,10c1.79,2.332,2.944,5.089,3.35,8c0.73,5.1-0.88,10.25-0.72,15.4c0.33,11,9.15,20.57,19.67,23.69
	c3.17,0.94,6.63,1.44,9.19,3.54c2.87,2.35,4,6.15,5.64,9.45c5.42,10.67,18.59,16.75,30.23,13.94l-2.32-2.62
	C996.58,359.58,986.37,353.84,981.76,344.76z"/>
<path opacity="0.1" enable-background="new    " d="M912.82,299.12c-1.31,2-5.06,12.24-8.19,21.18c-2.93-1.14-5.59-8.41-5.59-8.41
	l15.62-22.22C916.26,291.87,915.21,295.52,912.82,299.12z"/>
<path fill="#DCE7FF" d="M913.42,298.52c-1.31,2-5.06,12.24-8.19,21.18c-2.93-1.13-5.59-8.41-5.59-8.41l15.62-22.21
	C916.86,291.27,915.81,294.93,913.42,298.52z"/>
<path fill="#BE8B87" d="M822.6,400.68l-8.66-27.31c-0.43-1.341,0.309-2.777,1.65-3.207c0.003-0.001,0.007-0.002,0.01-0.003l0,0
	c1.341-0.419,2.77,0.322,3.2,1.66l8.66,27.28l-0.86,5.71L822.6,400.68z"/>
<path opacity="0.1" fill="#FFFFFF" enable-background="new    " d="M814.76,370.97L814.76,370.97c1.345-0.425,2.78,0.317,3.21,1.66
	l8.66,27.28l-0.65,4.28l0.63,0.66l0.86-5.71l-8.71-27.28c-0.43-1.338-1.859-2.079-3.2-1.66l0,0c-0.542,0.176-1.01,0.528-1.33,1
	C814.4,371.109,814.577,371.032,814.76,370.97z"/>
<polygon fill="#EFC8C4" points="822.6,400.68 827.46,399.14 826.75,403.82 826.6,404.85 825.18,403.37 "/>
<path fill="#727A9C" d="M825.18,403.37c0.085-0.107,0.19-0.195,0.31-0.26c0.144-0.091,0.326-0.091,0.47,0
	c0.068,0.082,0.125,0.173,0.17,0.27c0.134,0.224,0.362,0.374,0.62,0.41l-0.15,1L825.18,403.37z"/>
<path fill="#FFB0B1" d="M813.89,383.07c0,0,17.37-0.1,13.28,7.29s-10.48,8.28-10.48,8.28L813.89,383.07z"/>
<rect x="552.52" y="123.87" fill="#FFFFFF" width="164.6" height="150.69"/>
<path fill="#FF5E22" d="M705.86,51.42h-0.75c-29.84,0-56.23,15.79-71.41,39.09c-15.18-23.3-41.57-39.09-71.41-39.09h-0.75
	c-46.608,0.444-84.165,38.34-84.19,84.95c0,27.81,12.18,67.27,35.93,99.74c45.25,61.87,120.42,116,120.42,116
	s75.17-54.12,120.41-116c23.76-32.47,35.93-71.93,35.93-99.74C790.015,89.764,752.464,51.87,705.86,51.42z M695.13,240.87
	c-6.956-0.026-13.181-4.325-15.67-10.82h-17.84c-2.408-0.015-4.541-1.558-5.31-3.84l-5.48-16.51l-17.34,60.59
	c-0.694,2.396-2.886,4.046-5.38,4.05h-0.35c-2.611-0.126-4.778-2.06-5.2-4.64l-17.87-107.48l-13.06,63.6
	c-0.616,2.486-2.849,4.232-5.41,4.23h-25.13c-3.085,0.13-5.691-2.264-5.821-5.349c-0.13-3.085,2.264-5.691,5.349-5.821
	c0.157-0.007,0.315-0.007,0.472,0h20.73l18.5-85.51c0.724-3.013,3.753-4.868,6.765-4.144c2.216,0.532,3.889,2.352,4.235,4.604
	l18.25,109.64l15.54-54.21c0.665-2.345,2.793-3.973,5.23-4h0.11c2.411,0.001,4.548,1.55,5.3,3.84l9.91,29.81h13.58
	c2.894-8.792,12.368-13.574,21.16-10.68c8.792,2.894,13.574,12.368,10.68,21.16c-2.263,6.874-8.682,11.52-15.92,11.52L695.13,240.87
	z"/>
</svg>
