<?xml version="1.0" encoding="utf-8"?>
<!-- Generator: Adobe Illustrator 17.0.0, SVG Export Plug-In . SVG Version: 6.00 Build 0)  -->
<!DOCTYPE svg PUBLIC "-//W3C//DTD SVG 1.1//EN" "http://www.w3.org/Graphics/SVG/1.1/DTD/svg11.dtd">
<svg version="1.1" id="Layer_1" xmlns="http://www.w3.org/2000/svg" xmlns:xlink="http://www.w3.org/1999/xlink" x="0px" y="0px"
	 width="80px" height="75px" viewBox="0 0 80 75" enable-background="new 0 0 80 75" xml:space="preserve">
<g>
	<g>
		<path fill="#FFFFFF" d="M46.433,58.345v6.948H33.566V31.066h5.662V23.86H26.362v20.074H12.207V31.066h6.948V23.86h-7.464
			C8.004,23.86,5,26.862,5,30.551v13.896c0,3.69,3.004,6.691,6.691,6.691h14.671v14.67c0,3.69,3,6.691,6.69,6.691h13.896
			c3.691,0,6.69-3.002,6.69-6.691v-7.463H46.433z"/>
	</g>
	<g>
		<path fill="#FFFFFF" d="M68.308,23.86h-14.67V9.191c0-3.689-3-6.69-6.69-6.69H33.052c-3.691,0-6.69,3.002-6.69,6.69v7.463h7.204
			V9.706h12.867v34.228h-5.662v7.205h12.866V31.066h14.155v12.868h-6.948v7.205h7.463c3.689,0,6.692-3.002,6.692-6.691V30.551
			C75,26.862,71.997,23.86,68.308,23.86z"/>
	</g>
</g>
</svg>
