<?xml version="1.0" encoding="utf-8"?>
<!-- Generator: Adobe Illustrator 17.0.0, SVG Export Plug-In . SVG Version: 6.00 Build 0)  -->
<!DOCTYPE svg PUBLIC "-//W3C//DTD SVG 1.1//EN" "http://www.w3.org/Graphics/SVG/1.1/DTD/svg11.dtd">
<svg version="1.1" id="Layer_1" xmlns="http://www.w3.org/2000/svg" xmlns:xlink="http://www.w3.org/1999/xlink" x="0px" y="0px"
	 width="267px" height="75px" viewBox="0 0 267 75" enable-background="new 0 0 267 75" xml:space="preserve">
<g>
	<g>
		<g>
			<path fill="#FFFFFF" d="M49.803,58.345v6.948H36.935V31.066h5.662V23.86H29.731v20.074H15.576V31.066h6.948V23.86h-7.464
				c-3.688,0-6.691,3.003-6.691,6.691v13.896c0,3.69,3.004,6.691,6.691,6.691h14.671v14.67c0,3.69,3,6.691,6.69,6.691h13.896
				c3.691,0,6.69-3.002,6.69-6.691v-7.463H49.803z"/>
		</g>
		<g>
			<path fill="#FFFFFF" d="M71.677,23.86h-14.67V9.191c0-3.689-3-6.69-6.69-6.69H36.422c-3.691,0-6.69,3.002-6.69,6.69v7.463h7.204
				V9.706h12.867v34.228h-5.662v7.205h12.866V31.066h14.155v12.868h-6.948v7.205h7.463c3.689,0,6.692-3.002,6.692-6.691V30.551
				C78.369,26.862,75.366,23.86,71.677,23.86z"/>
		</g>
	</g>
	<g>
		<path fill="#FFFFFF" d="M98.583,8.885h6.378v14.283h11.437V8.885h6.379v33.352h-6.379v-13.19h-11.437v13.19h-6.378V8.885z"/>
		<path fill="#FFFFFF" d="M127.432,15.81c0-5.787,4.099-6.986,7.245-6.925c0,0,11.741,0.328,14.673,0.729v5.274h-13.17
			c-2.369,0-2.369,1.321-2.369,2.551v5.203l13.466,0.482v5.244l-13.466,0.431v5.203c0.021,2.415,1.503,2.369,2.825,2.369h12.714
			v5.229c-2.581,0.351-14.218,0.775-14.218,0.775c-2.975,0.132-7.7-0.542-7.7-6.693V15.81z"/>
		<path fill="#FFFFFF" d="M163.424,8.885h7.256l10.832,33.352h-6.791l-2.37-7.391h-10.923l-2.406,7.391h-6.853L163.424,8.885z
			 M170.841,29.195l-3.747-11.903l-4.009,11.903H170.841z"/>
		<path fill="#FFFFFF" d="M184.915,8.885h6.378V33.99c0,2.415,1.504,2.369,2.825,2.369h11.436v5.878h-13.691
			c-3.634,0-6.948-1.344-6.948-6.493V8.885z"/>
		<path fill="#FFFFFF" d="M202.659,8.885h24.649v5.877h-9.272v27.475h-6.379V14.762h-8.999V8.885z"/>
		<path fill="#FFFFFF" d="M231.019,8.885h6.378v14.283h11.437V8.885h6.379v33.352h-6.379v-13.19h-11.437v13.19h-6.378V8.885z"/>
	</g>
	<g>
		<path fill="#FFFFFF" d="M97.841,56.211c0-2.727,1.617-3.522,3.722-3.553c1.979-0.042,4.233,0.223,5.32,0.544v2.068
			c-1.203-0.106-3.914-0.188-4.596-0.188c-1.15-0.025-1.814,0.055-1.814,1.335v0.672c0,1.09,0.417,1.325,1.483,1.325h2.173
			c2.697,0,3.253,2.126,3.253,3.646v0.917c0,3.124-1.946,3.703-3.808,3.703c-2.348,0-3.887-0.144-5.309-0.563V64.05
			c0.752,0.075,3.044,0.207,4.792,0.207c0.792,0,1.693-0.131,1.693-1.186v-0.74c0-0.782-0.237-1.284-1.242-1.284h-2.115
			c-3.318,0-3.553-2.45-3.553-3.647V56.211z"/>
		<path fill="#FFFFFF" d="M113.843,52.771h2.632v10.358c0,0.996,0.62,0.978,1.166,0.978h4.718v2.425h-5.649
			c-1.499,0-2.867-0.555-2.867-2.679V52.771z"/>
		<path fill="#FFFFFF" d="M134.003,52.677c3.252,0,5.519,0.62,5.519,7.068c0,6.071-2.135,6.861-5.519,6.861
			s-5.535-0.602-5.535-6.861C128.468,53.297,130.845,52.677,134.003,52.677z M134.003,64.182c2.209,0,2.887-0.728,2.887-4.437
			c0-4.287-0.796-4.644-2.887-4.644c-2.035,0-2.903,0.264-2.903,4.644C131.1,63.501,131.653,64.182,134.003,64.182z"/>
		<path fill="#FFFFFF" d="M150.129,52.62c2.084,0,3.304,0.118,5.292,0.611v2.039c-0.113,0-2.521-0.329-4.672-0.329
			c-2.078,0-2.48,1.277-2.48,4.672c0,3.573,0.409,4.537,2.359,4.554c1.284,0.009,2.369-0.864,2.369-0.864v-2.468h-1.928v-1.663
			c0.804-0.342,1.913-0.471,3.281-0.471c0.395,0,0.827,0.02,1.278,0.057v7.774h-1.89l-0.704-0.921
			c-0.611,0.559-1.335,0.963-2.923,1.015c-3.891,0.151-4.474-3.126-4.474-7.049C145.636,55.578,146.387,52.62,150.129,52.62z"/>
		<path fill="#FFFFFF" d="M166.377,52.771h2.994l4.469,13.761h-2.802l-0.978-3.049h-4.507l-0.993,3.049h-2.827L166.377,52.771z
			 M169.438,61.151l-1.546-4.911l-1.654,4.911H169.438z"/>
		<path fill="#FFFFFF" d="M179.947,52.771h2.669l5.46,8.892v-8.892h2.632v13.761h-2.632l-5.479-8.788v8.788h-2.65V52.771z"/>
		<path fill="#FFFFFF" d="M201.507,52.771h2.632v5.894h4.719v-5.894h2.632v13.761h-2.632v-5.442h-4.719v5.442h-2.632V52.771z"/>
		<path fill="#FFFFFF" d="M218.114,55.628c0-2.388,1.69-2.883,2.988-2.857c0,0,4.845,0.136,6.055,0.301v2.176h-5.434
			c-0.979,0-0.979,0.545-0.979,1.053v2.148l5.557,0.198v2.163l-5.557,0.178v2.147c0.009,0.996,0.621,0.978,1.166,0.978h5.246v2.156
			c-1.065,0.146-5.866,0.32-5.866,0.32c-1.228,0.055-3.177-0.224-3.177-2.762V55.628z"/>
		<path fill="#FFFFFF" d="M233.346,52.771h6.02c2.148,0,3.746,1.005,3.746,4.291c0,3.406-1.427,3.811-2.191,4.051l2.605,5.419
			h-2.961l-2.275-5.207l-2.312-0.264v5.471h-2.632V52.771z M239.108,58.994c0.916,0,1.354-0.27,1.354-1.932
			c0-1.563-0.526-1.95-1.354-1.95h-3.12v3.882H239.108z"/>
		<path fill="#FFFFFF" d="M249.587,55.628c0-2.388,1.691-2.883,2.989-2.857c0,0,4.845,0.136,6.055,0.301v2.176h-5.435
			c-0.977,0-0.977,0.545-0.977,1.053v2.148l5.556,0.198v2.163l-5.556,0.178v2.147c0.008,0.996,0.62,0.978,1.165,0.978h5.246v2.156
			c-1.065,0.146-5.866,0.32-5.866,0.32c-1.228,0.055-3.178-0.224-3.178-2.762V55.628z"/>
	</g>
</g>
</svg>
