<?xml version="1.0" encoding="utf-8"?>
<!-- Generator: Adobe Illustrator 17.0.0, SVG Export Plug-In . SVG Version: 6.00 Build 0)  -->
<!DOCTYPE svg PUBLIC "-//W3C//DTD SVG 1.1//EN" "http://www.w3.org/Graphics/SVG/1.1/DTD/svg11.dtd">
<svg version="1.1" id="Layer_1" xmlns="http://www.w3.org/2000/svg" xmlns:xlink="http://www.w3.org/1999/xlink" x="0px" y="0px"
	 width="30px" height="30px" viewBox="0 0 30 30" enable-background="new 0 0 30 30" xml:space="preserve">
<path fill="#FFFFFF" d="M23.125,2.813H21.5V2c0-0.449-0.364-0.813-0.813-0.813S19.875,1.551,19.875,2v0.813h-9.75V2
	c0-0.449-0.364-0.813-0.813-0.813S8.5,1.551,8.5,2v0.813H6.875C4.183,2.813,2,4.995,2,7.688v16.25c0,2.692,2.183,4.875,4.875,4.875
	h16.25c2.692,0,4.875-2.183,4.875-4.875V7.688C28,4.995,25.817,2.813,23.125,2.813z M26.375,23.938
	c-0.002,1.794-1.456,3.248-3.25,3.25H6.875c-1.794-0.002-3.248-1.456-3.25-3.25v-13h22.75V23.938z M10.125,19.063
	c0,0.897-0.728,1.625-1.625,1.625c-0.897,0-1.625-0.728-1.625-1.625s0.728-1.625,1.625-1.625
	C9.397,17.438,10.125,18.165,10.125,19.063z M16.625,19.063c0,0.897-0.728,1.625-1.625,1.625s-1.625-0.728-1.625-1.625
	s0.728-1.625,1.625-1.625S16.625,18.165,16.625,19.063z M23.125,19.063c0,0.897-0.728,1.625-1.625,1.625
	c-0.897,0-1.625-0.728-1.625-1.625s0.728-1.625,1.625-1.625C22.397,17.438,23.125,18.165,23.125,19.063z"/>
</svg>
