<?xml version="1.0" encoding="utf-8"?>
<!-- Generator: Adobe Illustrator 17.0.0, SVG Export Plug-In . SVG Version: 6.00 Build 0)  -->
<!DOCTYPE svg PUBLIC "-//W3C//DTD SVG 1.1//EN" "http://www.w3.org/Graphics/SVG/1.1/DTD/svg11.dtd">
<svg version="1.1" id="Layer_1" xmlns="http://www.w3.org/2000/svg" xmlns:xlink="http://www.w3.org/1999/xlink" x="0px" y="0px"
	 width="30px" height="30px" viewBox="0 0 30 30" enable-background="new 0 0 30 30" xml:space="preserve">
<g>
	<path fill="#FFFFFF" d="M7.789,25.345l1.747-2.98h14.627c2.124,0,3.837-1.747,3.837-3.837V8.491c0-2.124-1.713-3.837-3.837-3.837
		H5.837C3.713,4.655,2,6.368,2,8.491v10.037c0,2.09,1.713,3.837,3.837,3.837h1.953V25.345z M21.149,11.163
		c1.267,0,2.329,1.062,2.329,2.329c0,1.302-1.062,2.329-2.329,2.329c-1.302,0-2.329-1.028-2.329-2.329
		C18.819,12.225,19.847,11.163,21.149,11.163z M14.983,11.163c1.302,0,2.329,1.062,2.329,2.329c0,1.302-1.028,2.329-2.329,2.329
		c-1.267,0-2.329-1.028-2.329-2.329C12.653,12.225,13.715,11.163,14.983,11.163z M8.851,11.163c1.267,0,2.329,1.062,2.329,2.329
		c0,1.302-1.062,2.329-2.329,2.329c-1.302,0-2.329-1.028-2.329-2.329C6.522,12.225,7.549,11.163,8.851,11.163z"/>
</g>
</svg>
