<?xml version="1.0" encoding="utf-8"?>
<!-- Generator: Adobe Illustrator 17.0.0, SVG Export Plug-In . SVG Version: 6.00 Build 0)  -->
<!DOCTYPE svg PUBLIC "-//W3C//DTD SVG 1.1//EN" "http://www.w3.org/Graphics/SVG/1.1/DTD/svg11.dtd">
<svg version="1.1" id="Layer_1" xmlns="http://www.w3.org/2000/svg" xmlns:xlink="http://www.w3.org/1999/xlink" x="0px" y="0px"
	 width="30px" height="30px" viewBox="0 0 30 30" enable-background="new 0 0 30 30" xml:space="preserve">
<g>
	<path fill="#FFFFFF" d="M27.071,11.286h-2.786C24.286,6.157,20.128,2,15,2s-9.286,4.157-9.286,9.286H2.929
		C2.416,11.286,2,11.701,2,12.214v14.857C2,27.584,2.416,28,2.929,28h24.143C27.584,28,28,27.584,28,27.071V12.214
		C28,11.701,27.584,11.286,27.071,11.286z M15,3.857c4.103,0,7.429,3.326,7.429,7.429S19.103,18.714,15,18.714
		s-7.429-3.326-7.429-7.429S10.897,3.857,15,3.857z M24.286,21.5c0,0.513-0.416,0.929-0.929,0.929H6.643
		c-0.513,0-0.929-0.416-0.929-0.929v-3.714c0-0.513,0.416-0.929,0.929-0.929h0.929c3.077,4.103,8.897,4.934,13,1.857
		c0.704-0.528,1.329-1.153,1.857-1.857h0.929c0.513,0,0.929,0.416,0.929,0.929V21.5z"/>
	<circle fill="#FFFFFF" cx="15" cy="11.286" r="5.571"/>
</g>
</svg>
