<?xml version="1.0" encoding="utf-8"?>
<!-- Generator: Adobe Illustrator 17.0.0, SVG Export Plug-In . SVG Version: 6.00 Build 0)  -->
<!DOCTYPE svg PUBLIC "-//W3C//DTD SVG 1.1//EN" "http://www.w3.org/Graphics/SVG/1.1/DTD/svg11.dtd">
<svg version="1.1" id="Layer_1" xmlns="http://www.w3.org/2000/svg" xmlns:xlink="http://www.w3.org/1999/xlink" x="0px" y="0px"
	 width="30px" height="30px" viewBox="0 0 30 30" enable-background="new 0 0 30 30" xml:space="preserve">
<g>
	<g>
		<polygon fill="#FFFFFF" points="18.791,4.311 10.957,8.942 9.307,15.899 19.835,9.676 		"/>
		<polygon fill="#FFFFFF" points="19.931,10.171 9.155,16.541 7.504,23.498 20.976,15.536 		"/>
		<polygon fill="#FFFFFF" points="18.146,1 12.842,1 11.11,8.3 18.694,3.816 		"/>
		<polygon fill="#FFFFFF" points="22.764,24.719 22.213,21.892 17.43,24.719 		"/>
		<path fill="#FFFFFF" d="M23.072,25.292c0,0-0.001,0-0.001,0H6.891c-0.073,0-0.141-0.033-0.186-0.09
			c-0.002-0.002-0.003-0.005-0.005-0.008H4.083V29h21.835v-3.806h-2.653C23.221,25.253,23.151,25.292,23.072,25.292z"/>
		<polygon fill="#FFFFFF" points="22.117,21.396 21.072,16.031 7.352,24.14 7.215,24.719 16.496,24.719 		"/>
	</g>
</g>
</svg>
